<svg width="912" height="450" viewBox="0 0 912 450" fill="none" xmlns="http://www.w3.org/2000/svg">
<g clip-path="url(#clip0_40_9082)">
<rect width="912" height="450" fill="#FBFCFF"/>
<circle cx="914.5" cy="517.5" r="438.5" fill="#E3F0FE" fill-opacity="0.4"/>
<path d="M8.55584 281.05L-1.91205 275.265V286.834L8.55584 281.05Z" fill="#61B5FB"/>
<path d="M22.8806 281.05L12.9637 275.265V286.834L22.8806 281.05Z" fill="#61B5FB"/>
<path d="M37.7564 281.05L27.8394 275.265V286.834L37.7564 281.05Z" fill="#61B5FB"/>
<path d="M371.076 83.2833L361.159 77.499V89.0675L371.076 83.2833Z" fill="#1D7EF8"/>
<path d="M385.95 83.2833L376.033 77.499V89.0675L385.95 83.2833Z" fill="#1D7EF8"/>
<path d="M415.151 83.2833L405.234 77.499V89.0675L415.151 83.2833Z" fill="#1D7EF8"/>
<path d="M430.027 83.2833L420.11 77.499V89.0675L430.027 83.2833Z" fill="#61B5FB"/>
<path d="M444.902 83.2833L434.434 77.499V89.0675L444.902 83.2833Z" fill="#61B5FB"/>
<path d="M266.947 354.867L257.031 349.083V360.652L266.947 354.867Z" fill="#61B5FB"/>
<path d="M281.823 354.867L271.355 349.083V360.652L281.823 354.867Z" fill="#61B5FB"/>
<path d="M296.147 354.867L286.23 349.083V360.652L296.147 354.867Z" fill="#61B5FB"/>
<path d="M311.023 354.867L301.106 349.083V360.652L311.023 354.867Z" fill="#61B5FB"/>
<path d="M325.899 354.867L315.431 349.083V360.652L325.899 354.867Z" fill="#FFB02C"/>
<path d="M340.222 354.867L330.305 349.083V360.652L340.222 354.867Z" fill="#61B5FB"/>
<path d="M-97.7755 14.1477L-10.0989 101.672C-7.2298 104.536 -3.33877 106.145 0.720177 106.145H217.363" stroke="#1D7EF8" stroke-width="2" stroke-miterlimit="10"/>
<path d="M-109.346 182.166H253.397C261.843 182.166 268.688 175.322 268.688 166.877V84.5256C268.688 76.0814 275.534 69.2367 283.979 69.2367H327.135C335.581 69.2367 342.426 62.3921 342.426 53.9478V-2.37866" stroke="#1D7EF8" stroke-width="2" stroke-miterlimit="10"/>
<path d="M42.1636 8.63895V205.44C42.1636 213.884 49.0091 220.729 57.4543 220.729H289.489C297.934 220.729 304.779 227.574 304.779 236.018V252.264C304.779 260.708 311.625 267.553 320.07 267.553H403.03" stroke="#E3F0FE" stroke-width="2" stroke-miterlimit="10"/>
<path d="M-97.7755 412.986L2.52244 312.776C5.39269 309.908 9.28521 308.297 13.3457 308.297H333.618C342.072 308.297 348.924 301.451 348.924 293.005V128.905C348.924 120.459 355.776 113.613 364.229 113.613H452.185C460.638 113.613 467.49 106.767 467.49 98.3206V-2.37866" stroke="#E3F0FE" stroke-width="2" stroke-miterlimit="10"/>
<path d="M219.016 379.932C179.459 379.932 147.393 347.869 147.393 308.318C147.393 268.767 179.46 236.703 219.016 236.703C258.571 236.703 290.638 268.767 290.638 308.318" stroke="#61B5FB" stroke-width="2" stroke-miterlimit="10"/>
<path d="M245.869 263.203C260.576 248.5 260.576 224.662 245.869 209.958C231.162 195.255 207.317 195.255 192.61 209.958C177.903 224.662 177.903 248.5 192.61 263.203C207.317 277.906 231.162 277.906 245.869 263.203Z" stroke="#1D7EF8" stroke-width="2" stroke-linecap="round" stroke-linejoin="round" stroke-dasharray="20.07 20.07 20.07 20.07 20.07 20.07"/>
<path d="M193.122 106.145C193.122 189.508 125.536 257.086 42.1638 257.086C-41.2082 257.086 -108.794 189.508 -108.794 106.145" stroke="#61B5FB" stroke-width="2" stroke-miterlimit="10"/>
<path d="M5.87944 451.188C99.7013 451.188 175.759 375.131 175.759 281.309C175.759 187.487 99.7013 111.43 5.87944 111.43C-87.9424 111.43 -164 187.487 -164 281.309C-164 375.131 -87.9424 451.188 5.87944 451.188Z" stroke="#BBDDFD" stroke-width="2" stroke-miterlimit="10"/>
<path d="M263.173 146.181C358.152 146.181 435.148 69.1937 435.148 -25.7751C435.148 -120.744 358.152 -197.731 263.173 -197.731C168.194 -197.731 91.1976 -120.744 91.1976 -25.7751C91.1976 69.1937 168.194 146.181 263.173 146.181Z" stroke="#BBDDFD" stroke-width="2" stroke-miterlimit="10"/>
<path d="M356.796 269.471C357.728 265.523 355.282 261.567 351.332 260.635C347.383 259.703 343.426 262.148 342.493 266.097C341.561 270.045 344.007 274.001 347.957 274.933C351.906 275.865 355.864 273.42 356.796 269.471Z" fill="#61B5FB"/>
<path d="M47.1615 187.599C50.031 184.73 50.031 180.079 47.1616 177.211C44.2921 174.342 39.6398 174.342 36.7704 177.211C33.901 180.079 33.901 184.73 36.7704 187.599C39.6398 190.468 44.2921 190.468 47.1615 187.599Z" fill="#61B5FB"/>
<path d="M49.1321 107.853C50.0484 103.901 47.5865 99.9544 43.6333 99.0383C39.6801 98.1223 35.7326 100.583 34.8163 104.536C33.9 108.488 36.3619 112.434 40.3151 113.35C44.2683 114.266 48.2158 111.805 49.1321 107.853Z" fill="#61B5FB"/>
<path d="M106.327 113.304C110.247 112.252 112.571 108.223 111.518 104.305C110.466 100.387 106.436 98.0632 102.517 99.1153C98.5974 100.167 96.2734 104.196 97.3257 108.115C98.3781 112.033 102.408 114.356 106.327 113.304Z" fill="#61B5FB"/>
<path d="M130.982 309.403C131.632 305.398 128.912 301.625 124.906 300.975C120.901 300.325 117.126 303.044 116.476 307.049C115.826 311.053 118.546 314.827 122.552 315.477C126.557 316.127 130.332 313.407 130.982 309.403Z" fill="#61B5FB"/>
<path d="M154.731 309.877C155.663 305.929 153.217 301.973 149.267 301.041C145.318 300.109 141.361 302.554 140.428 306.503C139.496 310.451 141.942 314.407 145.892 315.339C149.841 316.271 153.799 313.826 154.731 309.877Z" fill="#61B5FB"/>
<path d="M224.435 313.403C227.305 310.534 227.305 305.883 224.435 303.015C221.566 300.146 216.913 300.146 214.044 303.015C211.175 305.883 211.175 310.534 214.044 313.403C216.913 316.272 221.566 316.272 224.435 313.403Z" fill="#61B5FB"/>
<path d="M348.763 193.184L342.978 203.651H354.548L348.763 193.184Z" fill="#61B5FB"/>
<path d="M222.321 182.442L212.404 176.658V188.226L222.321 182.442Z" fill="#61B5FB"/>
<path d="M167.778 106.42L157.861 100.636V112.205L167.778 106.42Z" fill="#61B5FB"/>
<path d="M41.8895 59.8709L47.6735 49.955H36.1038L41.8895 59.8709Z" fill="#61B5FB"/>
<path d="M467.215 49.955L461.43 59.8709H473L467.215 49.955Z" fill="#61B5FB"/>
<path d="M400.826 83.2833L390.358 77.499V89.0675L400.826 83.2833Z" fill="#1D7EF8"/>
<path d="M686.21 89.451C687.51 85.5475 690.16 81.9718 693.869 80.1936C697.579 78.4126 702.373 78.713 705.452 81.4446C707.574 83.3267 708.702 86.1157 709.18 88.9101C709.929 93.2889 709.161 98.0037 706.632 101.656C704.102 105.308 699.721 107.742 695.284 107.48C685.235 106.887 683.612 97.2416 686.207 89.4483L686.21 89.451Z" fill="#575757"/>
<path d="M620.787 134.777C621.44 130.466 622.088 126.006 620.96 121.793C619.984 118.152 617.712 114.822 617.6 111.05C617.482 106.953 620.047 103.139 623.382 100.801C626.718 98.4627 630.739 97.37 634.71 96.5177C644.017 94.5182 653.559 93.6222 663.07 93.849C670.566 94.0265 678.468 95.0673 684.401 99.6919C690.291 104.281 693.284 111.64 695.609 118.775C702.449 139.762 705.691 161.743 708.909 183.596C709.439 187.188 709.945 190.993 708.56 194.345C706.607 199.082 701.498 201.557 696.713 203.283C676.48 210.576 654.561 211.926 633.118 210.598C627.898 210.276 622.467 209.727 618.026 206.935C607.668 200.426 613.092 185.53 614.565 175.816C616.638 162.137 618.711 148.454 620.785 134.774L620.787 134.777Z" fill="#575757"/>
<path d="M483.612 154.942C479.878 161.487 475.564 167.69 470.506 173.282C467.845 176.221 465.02 179.026 461.934 181.517C458.904 183.962 455.662 186.139 452.318 188.131C451.406 188.674 450.488 189.201 449.562 189.72C432.771 157.892 423.328 126.128 423.328 126.128C409.957 116.472 417.701 111.421 417.701 111.421C415.608 103.076 422.374 102.333 422.374 102.333C424.366 92.2674 433.317 96.4277 433.317 96.4277C425.997 85.6733 422.405 68.0872 443.695 90.0821C456.277 103.082 472.423 127.216 486.944 148.73C485.882 150.825 484.781 152.901 483.617 154.944L483.612 154.942Z" fill="white"/>
<path d="M448.235 187.781C448.284 187.781 448.333 187.776 448.382 187.762C448.705 187.68 448.898 187.355 448.819 187.033C448.519 185.839 447.931 185.03 447.309 184.173C447.12 183.913 446.923 183.645 446.73 183.353C437 162.5 429.496 143.671 423.789 125.787C423.748 125.664 423.672 125.555 423.565 125.481C420.634 123.386 417.865 121.408 416.674 118.237C416.125 116.59 415.573 113.539 418.116 111.842C418.348 111.686 418.444 111.391 418.345 111.132C417.154 107.958 418.886 104.172 422.205 102.697C423.216 102.361 423.432 101.274 423.62 100.315C423.735 99.7384 423.852 99.1402 424.131 98.7195C426.813 95.1411 430.894 96.0944 433.085 96.9822C433.328 97.0833 433.612 97.0095 433.779 96.8019C433.812 96.7637 433.836 96.72 433.858 96.6763C433.858 96.6763 433.858 96.6763 433.858 96.6735C433.858 96.6735 433.858 96.6735 433.858 96.6708C433.858 96.6708 433.858 96.6708 433.858 96.6681C433.858 96.6681 433.858 96.6681 433.858 96.6653C433.883 96.608 433.896 96.5479 433.902 96.4878C433.902 96.4878 433.902 96.4878 433.902 96.485V96.4796C433.902 96.4796 433.902 96.4796 433.902 96.4769V96.4714C433.902 96.4714 433.902 96.4714 433.902 96.4687V96.4605V96.455V96.4495V96.4441C433.902 96.3976 433.899 96.3567 433.888 96.3157C433.888 96.3157 433.888 96.3157 433.888 96.313V96.3102C433.888 96.3102 433.888 96.3102 433.888 96.3075C433.888 96.3075 433.888 96.3075 433.888 96.3048V96.302C433.888 96.302 433.888 96.302 433.888 96.2993C433.888 96.2993 433.888 96.2993 433.888 96.2966C433.888 96.2966 433.888 96.2966 433.888 96.2938C433.888 96.2938 433.888 96.2938 433.888 96.2911C433.888 96.2911 433.888 96.2911 433.888 96.2884C433.872 96.2283 433.847 96.1737 433.812 96.1218L433.178 95.1302C430.285 90.6121 427.01 85.4958 428.734 80.3795C429.001 80.221 429.531 80.2046 429.813 80.2046C433.705 81.2918 436.713 83.9633 439.619 86.5502C440.007 86.8971 440.395 87.2413 440.783 87.58C455.402 102.549 466.323 118.961 477.884 136.334C480.058 139.601 482.306 142.977 484.551 146.301C484.734 146.577 485.111 146.648 485.385 146.463C485.661 146.277 485.732 145.903 485.546 145.63C483.3 142.308 481.055 138.932 478.883 135.667C467.29 118.245 456.339 101.79 441.608 86.7059C441.19 86.3371 440.805 85.9957 440.417 85.6515C437.387 82.9554 434.252 80.1691 430.05 79.0218C429.998 79.0082 429.947 79 429.892 79C429.403 79 428.389 79 427.794 79.5928C427.731 79.6556 427.685 79.7321 427.655 79.8167C425.767 85.097 428.715 90.3362 431.474 94.6958C431.487 94.827 431.588 95.0455 431.736 95.2968C428.179 94.3981 425.169 95.3432 423.142 98.0475C422.71 98.6949 422.563 99.4434 422.432 100.104C422.265 100.949 422.142 101.473 421.763 101.599C417.971 103.281 415.958 107.474 417.062 111.137C415.024 112.746 414.464 115.456 415.529 118.66C416.829 122.132 419.793 124.296 422.691 126.366C428.411 144.253 435.921 163.085 445.648 183.927C445.661 183.954 445.675 183.981 445.692 184.006C445.905 184.326 446.118 184.621 446.323 184.902C446.899 185.697 447.399 186.38 447.642 187.349C447.71 187.623 447.956 187.803 448.224 187.803L448.235 187.781Z" fill="#A8B5C3"/>
<path d="M450.813 132.856C451.122 132.856 451.436 132.829 451.753 132.772C452.081 132.712 452.297 132.4 452.237 132.072C452.179 131.745 451.862 131.526 451.537 131.589C449.229 132.004 447.139 130.346 446.044 128.795C444.987 127.295 444.353 125.481 443.741 123.727C443.583 123.271 443.422 122.815 443.255 122.362C442.49 120.286 441.326 117.71 439.117 116.183C438.068 115.459 436.877 115.035 435.727 114.626C435.218 114.445 434.694 114.257 434.2 114.052C432.916 113.511 431.296 112.539 430.878 110.965C430.345 108.96 432.195 106.851 434.2 106.308C436.379 105.715 438.748 106.346 440.979 107.114C447.161 109.242 452.305 112.118 456.268 115.664C456.514 115.885 456.897 115.866 457.118 115.617C457.339 115.371 457.317 114.989 457.071 114.768C452.99 111.115 447.707 108.157 441.373 105.977C438.958 105.147 436.377 104.469 433.885 105.147C431.329 105.841 428.988 108.529 429.714 111.274C430.258 113.32 432.2 114.516 433.735 115.161C434.26 115.382 434.801 115.573 435.322 115.759C436.448 116.161 437.513 116.538 438.434 117.174C440.368 118.51 441.425 120.87 442.127 122.779C442.291 123.225 442.449 123.675 442.605 124.126C443.244 125.959 443.905 127.852 445.061 129.488C446.216 131.125 448.344 132.859 450.811 132.859L450.813 132.856Z" fill="#A8B5C3"/>
<path d="M435.751 120.474C435.926 120.474 436.101 120.466 436.278 120.444C437.909 120.253 439.556 118.849 439.406 117.068C439.379 116.737 439.078 116.489 438.756 116.519C438.425 116.546 438.18 116.836 438.207 117.169C438.294 118.21 437.185 119.127 436.136 119.25C435.123 119.368 434.003 119.026 432.596 118.171C427.687 115.188 424.418 109.774 424.06 104.041C424.038 103.71 423.762 103.453 423.423 103.478C423.093 103.5 422.842 103.784 422.861 104.114C423.243 110.233 426.734 116.011 431.973 119.196C432.902 119.758 434.26 120.471 435.748 120.471L435.751 120.474Z" fill="#A8B5C3"/>
<path d="M429.223 121.654C429.477 121.654 429.723 121.635 429.963 121.597C431.422 121.362 432.605 120.307 432.837 119.034C432.897 118.707 432.681 118.395 432.353 118.335C432.02 118.275 431.714 118.491 431.654 118.819C431.493 119.69 430.586 120.28 429.772 120.411C428.947 120.545 428.016 120.37 426.835 119.865C423.533 118.45 420.853 115.732 419.487 112.41C419.362 112.104 419.009 111.96 418.704 112.083C418.398 112.208 418.25 112.561 418.376 112.866C419.862 116.478 422.774 119.431 426.363 120.968C427.442 121.43 428.371 121.657 429.226 121.657L429.223 121.654Z" fill="#A8B5C3"/>
<path d="M424.289 125.006C425.076 125.006 425.863 124.755 426.486 124.274C427.515 123.476 428.043 122.08 427.797 120.799C427.734 120.474 427.417 120.264 427.092 120.321C426.767 120.384 426.551 120.698 426.614 121.026C426.778 121.873 426.428 122.796 425.748 123.323C425.068 123.85 424.087 123.96 423.306 123.591C423.005 123.449 422.648 123.577 422.506 123.878C422.364 124.178 422.492 124.536 422.792 124.678C423.26 124.899 423.773 125.006 424.289 125.006Z" fill="#A8B5C3"/>
<path d="M837.249 256.85C837.249 256.85 809.635 309.149 767.609 307.928C725.584 306.707 707.489 269.191 707.489 269.191C707.489 269.191 719.929 307.325 706.194 317.516C692.46 327.708 593.423 337.558 586.544 306.3C581.63 283.961 585.689 269.145 583.157 251.387C583.157 251.387 514.558 259.751 480.2 233.547C458.426 216.938 442.613 177.016 442.613 177.016C442.613 177.016 456.667 147.036 485.057 145.941L500.529 167.655C509.139 179.739 522.936 187.06 537.771 187.418L704.318 191.42C721.563 191.835 737.633 200.461 747.294 214.75C757.909 230.446 775.028 248.142 797.294 245.664L837.246 256.853L837.249 256.85Z" fill="#1D7EF8"/>
<path d="M583.75 249.171C584.08 249.171 584.348 248.906 584.351 248.576C584.422 240.348 582.693 232.028 579.352 224.51C579.215 224.207 578.86 224.071 578.557 224.204C578.254 224.338 578.117 224.693 578.251 224.999C581.526 232.361 583.217 240.509 583.146 248.565C583.143 248.898 583.411 249.169 583.742 249.171H583.747H583.75Z" fill="#575757"/>
<path d="M664.469 269.768C666.977 269.768 669.482 269.41 671.891 268.686C678.204 266.79 683.697 262.42 686.961 256.694C687.125 256.405 687.027 256.039 686.737 255.875C686.451 255.708 686.082 255.809 685.918 256.099C682.804 261.556 677.565 265.725 671.544 267.533C665.524 269.342 658.856 268.752 653.248 265.913C652.953 265.763 652.589 265.881 652.439 266.178C652.289 266.473 652.409 266.837 652.704 266.987C656.34 268.828 660.405 269.768 664.467 269.768H664.469Z" fill="#575757"/>
<path d="M611.902 264.198C612.194 264.198 612.448 263.985 612.495 263.69C612.547 263.362 612.323 263.053 611.992 263.004C603.112 261.619 595.466 253.862 594.212 244.962C593.42 239.351 595.103 233.424 598.826 228.703C599.031 228.444 598.987 228.064 598.725 227.859C598.462 227.654 598.085 227.698 597.881 227.96C593.955 232.937 592.185 239.196 593.021 245.131C594.349 254.536 602.423 262.731 611.806 264.195C611.839 264.201 611.869 264.203 611.899 264.203L611.902 264.198Z" fill="#575757"/>
<path d="M706.953 265.403C706.978 265.403 707.003 265.403 707.027 265.397C707.358 265.356 707.593 265.059 707.552 264.728C707.057 260.672 706.546 256.479 707.442 252.455C708.199 249.04 710.453 244.888 714.506 243.482C714.82 243.372 714.987 243.031 714.878 242.717C714.769 242.403 714.427 242.236 714.113 242.345C710.332 243.659 707.328 247.432 706.271 252.193C705.334 256.419 705.855 260.718 706.361 264.873C706.399 265.179 706.658 265.4 706.956 265.4L706.953 265.403Z" fill="#575757"/>
<path d="M774.957 269.189H839.27C840.644 269.189 841.898 268.413 842.51 267.181L886.664 178.518C887.863 176.112 886.112 173.284 883.424 173.284H819.111C817.737 173.284 816.483 174.06 815.871 175.292L771.718 263.952C770.518 266.359 772.269 269.186 774.957 269.186V269.189Z" fill="#575757"/>
<path d="M846.263 216.378C847.752 215.761 849.254 217.19 850.156 218.526C852.614 222.167 854.373 226.275 855.313 230.567C854.576 222.566 853.838 214.565 853.098 206.564C852.86 203.991 853.223 200.552 855.761 200.052C857.722 199.667 859.375 201.497 860.394 203.218C862.484 206.739 863.896 210.659 864.535 214.701C863.587 209.175 862.637 203.646 861.689 198.12C861.47 196.842 861.263 195.46 861.842 194.299C863.079 191.81 867.122 192.267 868.813 194.471C869.067 194.804 869.28 195.157 869.466 195.523C869.373 195.146 869.285 194.769 869.217 194.389C868.717 191.687 869.537 188.191 872.211 187.565C873.874 187.175 875.628 188.15 876.62 189.54C877.614 190.931 877.991 192.66 878.256 194.348C879.4 201.666 878.786 209.244 876.543 216.299C872.413 232.858 860.929 247.871 847.126 257.915C850.587 245.607 845.102 232.858 844.75 220.08C844.712 218.659 844.952 216.928 846.263 216.381V216.378Z" fill="white"/>
<path d="M847.127 258.513C847.252 258.513 847.375 258.475 847.479 258.399C862.372 247.565 873.178 232.271 877.125 216.444C879.398 209.292 879.999 201.608 878.849 194.255C878.576 192.507 878.177 190.685 877.109 189.191C876.076 187.746 874.12 186.5 872.072 186.978C869.534 187.573 868.351 190.455 868.485 193.283C867.371 192.381 865.846 191.9 864.393 192.04C862.973 192.179 861.875 192.886 861.304 194.031C860.615 195.416 860.894 197.038 861.099 198.224L862.377 205.679C861.932 204.731 861.443 203.805 860.913 202.911C859.375 200.322 857.504 199.095 855.647 199.461C853.306 199.923 852.128 202.597 852.5 206.618L854.182 224.863C853.243 222.516 852.055 220.263 850.656 218.187C849.241 216.091 847.515 215.206 846.031 215.821C845.13 216.195 844.07 217.242 844.149 220.091C844.28 224.822 845.116 229.594 845.922 234.21C847.351 242.375 848.7 250.086 846.548 257.749C846.479 257.994 846.572 258.259 846.782 258.404C846.886 258.475 847.006 258.513 847.127 258.513ZM872.968 188.079C874.249 188.079 875.464 188.956 876.131 189.89C877.052 191.179 877.412 192.84 877.661 194.441C878.783 201.611 878.199 209.107 875.97 216.116C872.2 231.233 862.09 245.828 848.116 256.429C849.735 249.018 848.4 241.394 847.108 234.005C846.307 229.433 845.479 224.707 845.351 220.061C845.318 218.864 845.49 217.351 846.493 216.936C847.566 216.485 848.831 217.638 849.659 218.861C852.057 222.415 853.811 226.507 854.726 230.695C854.794 231.003 855.092 231.206 855.406 231.159C855.72 231.11 855.942 230.826 855.912 230.509L853.699 206.506C853.581 205.252 853.398 201.128 855.879 200.639C857.657 200.286 859.151 202.294 859.881 203.521C861.776 206.717 863.126 210.317 863.806 213.98L863.948 214.799C864.003 215.125 864.311 215.348 864.639 215.291C864.964 215.236 865.188 214.931 865.136 214.605C865.093 214.327 865.043 214.048 864.994 213.772L862.29 198.016C862.063 196.692 861.913 195.517 862.388 194.564C862.899 193.537 863.94 193.288 864.516 193.233C865.942 193.094 867.515 193.752 868.343 194.834C868.562 195.118 868.756 195.432 868.936 195.79C869.075 196.066 869.397 196.192 869.682 196.082C869.968 195.976 870.13 195.673 870.056 195.375C869.966 195.009 869.881 194.643 869.813 194.277C869.403 192.075 869.922 188.715 872.353 188.147C872.561 188.098 872.768 188.076 872.973 188.076L872.968 188.079Z" fill="#A8B5C3"/>
<path d="M872.806 216.914C873.107 216.914 873.366 216.69 873.402 216.384C874.191 209.694 873.219 202.879 870.593 196.675C870.465 196.369 870.11 196.227 869.807 196.356C869.501 196.484 869.359 196.837 869.487 197.142C872.03 203.155 872.973 209.76 872.208 216.242C872.17 216.572 872.405 216.87 872.735 216.908C872.76 216.911 872.782 216.914 872.806 216.914Z" fill="#A8B5C3"/>
<path d="M864.264 228.422C864.549 228.422 864.8 228.22 864.854 227.93C865.578 224.068 865.699 220.129 865.212 216.231C865.171 215.9 864.865 215.663 864.543 215.709C864.213 215.75 863.98 216.051 864.021 216.378C864.491 220.156 864.374 223.967 863.674 227.709C863.614 228.034 863.83 228.348 864.155 228.411C864.193 228.417 864.229 228.422 864.267 228.422H864.264Z" fill="#A8B5C3"/>
<path d="M663.999 150.508L668.866 185.664C669.126 187.533 670.574 189.013 672.434 189.314L683.295 191.065C683.295 191.065 654.047 216.815 624.8 189.915L636.04 188.631C638.332 188.368 640.048 186.41 640.01 184.107L639.526 155.152C639.526 155.152 642.055 135.976 663.999 150.511V150.508Z" fill="white"/>
<path d="M671.639 141.357C673.658 142.934 674.576 145.714 674.13 148.238C673.685 150.762 671.983 152.98 669.784 154.294C667.585 155.608 664.933 156.064 662.382 155.83C660.975 155.698 659.508 155.373 658.183 155.862C657.156 156.239 656.364 157.053 655.536 157.769C651.625 161.153 646.126 162.675 641.064 161.618C636.002 160.561 631.52 156.889 629.646 152.068C628.097 148.088 628.308 143.641 628.988 139.426C630.293 131.354 633.219 123.632 636.582 116.18C642.43 117.543 648.568 117.636 654.455 116.453C652.887 121.07 653.048 126.252 654.9 130.762C656.309 134.198 658.694 137.225 661.677 139.437C662.281 139.882 663.226 140.754 663.969 140.912C664.898 141.109 665.479 140.492 666.441 140.254C668.214 139.82 670.202 140.237 671.642 141.363L671.639 141.357Z" fill="white"/>
<path d="M644.276 162.547C648.459 162.547 652.706 161.009 655.924 158.222C656.063 158.102 656.203 157.979 656.342 157.854C657.009 157.261 657.637 156.698 658.388 156.425C659.328 156.081 660.382 156.204 661.499 156.338C661.775 156.37 662.051 156.403 662.324 156.428C665.151 156.69 667.908 156.116 670.09 154.811C672.53 153.352 674.261 150.934 674.72 148.342C675.217 145.534 674.128 142.537 672.008 140.882C670.434 139.653 668.244 139.186 666.293 139.664C665.889 139.762 665.553 139.918 665.255 140.052C664.753 140.281 664.471 140.399 664.089 140.317C663.644 140.221 662.966 139.686 662.475 139.292C662.313 139.164 662.163 139.046 662.032 138.948C659.096 136.771 656.82 133.862 655.452 130.529C653.662 126.167 653.504 121.105 655.02 116.642C655.088 116.437 655.045 116.213 654.902 116.052C654.76 115.891 654.545 115.82 654.332 115.861C648.551 117.024 642.46 116.931 636.713 115.593C636.434 115.53 636.147 115.669 636.03 115.932C633.23 122.132 629.834 130.398 628.389 139.331C627.84 142.723 627.316 147.758 629.081 152.287C630.995 157.209 635.65 161.104 640.936 162.208C642.031 162.437 643.151 162.549 644.276 162.549V162.547ZM659.817 154.999C659.199 154.999 658.582 155.073 657.973 155.297C657.009 155.652 656.263 156.316 655.542 156.958C655.408 157.078 655.274 157.195 655.137 157.313C651.33 160.607 645.984 162.03 641.182 161.028C636.284 160.003 631.973 156.4 630.2 151.85C628.542 147.591 629.05 142.772 629.578 139.519C630.668 132.772 632.938 125.771 636.926 116.871C642.367 118.073 648.095 118.193 653.58 117.224C652.305 121.712 652.57 126.672 654.34 130.985C655.79 134.52 658.202 137.61 661.316 139.915C661.439 140.008 661.579 140.117 661.729 140.235C662.349 140.726 663.119 141.341 663.843 141.494C664.627 141.661 665.228 141.387 665.758 141.147C666.031 141.021 666.291 140.904 666.586 140.833C668.186 140.44 669.984 140.822 671.273 141.83C673.051 143.218 673.961 145.75 673.54 148.132C673.141 150.383 671.623 152.494 669.478 153.775C667.514 154.95 665.015 155.463 662.439 155.226C662.174 155.201 661.909 155.171 661.644 155.138C661.043 155.067 660.431 154.996 659.819 154.996L659.817 154.999Z" fill="#A8B5C3"/>
<path d="M662.513 152.224C662.715 152.224 662.915 152.12 663.027 151.934C663.972 150.377 665.758 149.331 667.577 149.268C667.908 149.257 668.17 148.979 668.156 148.648C668.146 148.318 667.87 148.044 667.536 148.069C665.288 148.146 663.166 149.388 661.999 151.311C661.827 151.596 661.917 151.964 662.202 152.136C662.3 152.197 662.406 152.224 662.513 152.224Z" fill="#A8B5C3"/>
<path d="M760.554 459.159H599.446L602.653 318.557C605.267 311.083 612.388 306.139 620.305 306.303L686.451 307.68C694.107 307.838 700.849 312.75 703.359 319.986C707.181 330.994 753.826 438.54 760.554 459.159Z" fill="white"/>
<path d="M760.554 459.759C760.617 459.759 760.68 459.751 760.74 459.729C761.054 459.626 761.229 459.287 761.125 458.973C757.03 446.426 738.278 401.975 723.21 366.259C713.666 343.633 705.422 324.094 703.928 319.789C703.818 319.475 703.477 319.308 703.163 319.417C702.849 319.527 702.682 319.868 702.791 320.182C704.299 324.523 712.549 344.078 722.101 366.723C737.16 402.42 755.902 446.844 759.98 459.344C760.062 459.598 760.297 459.759 760.551 459.759H760.554Z" fill="#A8B5C3"/>
<path d="M599.446 459.76C599.771 459.76 600.039 459.5 600.047 459.172L603.254 318.571C603.262 318.24 603 317.964 602.667 317.956H602.653C602.328 317.956 602.061 318.215 602.052 318.543L598.845 459.145C598.837 459.475 599.099 459.751 599.433 459.76H599.446Z" fill="#A8B5C3"/>
<path d="M674.241 460C674.284 460 674.328 459.994 674.372 459.986C674.697 459.915 674.899 459.593 674.828 459.268L656.712 377.795C655.354 371.684 651.339 366.622 645.695 363.913L636.613 359.55C636.312 359.406 635.954 359.534 635.809 359.832C635.665 360.129 635.793 360.49 636.091 360.635L645.173 364.997C650.481 367.548 654.259 372.31 655.537 378.057L673.653 459.53C673.716 459.811 673.965 460 674.241 460Z" fill="#A8B5C3"/>
</g>
<defs>
<clipPath id="clip0_40_9082">
<rect width="912" height="450" fill="white"/>
</clipPath>
</defs>
</svg>
