<?xml version="1.0" encoding="utf-8"?>
<!-- Generator: Adobe Illustrator 29.8.0, SVG Export Plug-In . SVG Version: 9.03 Build 0)  -->
<svg version="1.0"
	 id="svg3091" xmlns:sodipodi="http://sodipodi.sourceforge.net/DTD/sodipodi-0.dtd" xmlns:rdf="http://www.w3.org/1999/02/22-rdf-syntax-ns#" xmlns:cc="http://creativecommons.org/ns#" xmlns:svg="http://www.w3.org/2000/svg" xmlns:inkscape="http://www.inkscape.org/namespaces/inkscape" xmlns:dc="http://purl.org/dc/elements/1.1/" sodipodi:version="0.32"
	 xmlns="http://www.w3.org/2000/svg" xmlns:xlink="http://www.w3.org/1999/xlink" x="0px" y="0px" viewBox="0 0 630 186.62"
	 style="enable-background:new 0 0 630 186.62;" xml:space="preserve">
<style type="text/css">
	.st0{fill-rule:evenodd;clip-rule:evenodd;fill:#657C74;}
	.st1{fill-rule:evenodd;clip-rule:evenodd;fill:#CED74B;}
	.st2{fill-rule:evenodd;clip-rule:evenodd;fill:#93B7D2;}
	.st3{fill:#657C74;}
</style>
<defs>
	
		<inkscape:perspective  id="perspective3099" inkscape:persp3d-origin="372.04724 : 350.78739 : 1" inkscape:vp_x="0 : 526.18109 : 1" inkscape:vp_y="0 : 1000 : 0" inkscape:vp_z="744.09448 : 526.18109 : 1" sodipodi:type="inkscape:persp3d">
		</inkscape:perspective>
</defs>
<sodipodi:namedview  bordercolor="#666666" borderopacity="1.0" id="base" inkscape:current-layer="g2447" inkscape:cx="437.18673" inkscape:cy="150.49848" inkscape:document-units="px" inkscape:pageopacity="0.0" inkscape:pageshadow="2" inkscape:window-height="968" inkscape:window-width="1280" inkscape:window-x="-4" inkscape:window-y="-4" inkscape:zoom="1.0576336" pagecolor="#ffffff" showgrid="false">
	</sodipodi:namedview>
<g id="Capa_x0020_2_00000084532519893480750800000009481214496645359536_" transform="matrix(4.5372869,0,0,4.5372869,-352.35064,-406.47803)">
	<path id="path22_00000080204918884873060630000016177992641889150336_" class="st0" d="M98.08,90.4l1.91-0.04
		c0.51-0.15,0.14-0.48,0.65-0.57c-0.8-0.13-1.63-0.23-2.63-0.2C98.05,89.86,98.13,90.13,98.08,90.4z"/>
	<path id="path24_00000105400653855828954570000005293529141547436971_" class="st1" d="M104.44,90.46
		c0.17,0.28,0.34,0.58,0.48,0.87c0.39-0.11,0.77-0.22,1.16-0.24C105.52,90.91,105.03,90.7,104.44,90.46L104.44,90.46z"/>
	<path id="path26_00000158015628514870380510000015820332397478882960_" class="st2" d="M103.05,95.39
		c-0.12-0.44-0.13-0.96-0.4-1.34c-0.2-0.28-0.27-0.62-0.45-0.85c-2.59-3.21-6.45-2.65-6.44-2.74c0.31,1.18,2.7,2.64,6.92,3.62
		c0.62,0.15,1.24,0.23,1.85,0.3C104.52,94.37,103.06,95.42,103.05,95.39z"/>
	<path id="path28_00000138543359978562739700000017482260920255161769_" class="st2" d="M100.4,106.55
		c-0.01-0.64,0.04-1.54-0.14-2.17c-0.87-2.98-2.46-6.5-8.24-7.23c0.01,1.06,0.87,3.26,2.94,4.86c1.29,0.99,3.52,2.14,5.23,2.33
		c0.44,0.23,1.45,0.14,2.25,0.22C102.44,104.55,100.4,106.59,100.4,106.55z"/>
	<path id="path30_00000056424639239123812040000014834690045655135909_" class="st2" d="M100.4,106.55
		c-0.01-0.64,0.04-1.54-0.14-2.17c-0.87-2.98-2.46-6.5-8.24-7.23c0.01,1.06,0.87,3.26,2.94,4.86c1.29,0.99,3.52,2.14,5.23,2.33
		c0.44,0.23,1.45,0.14,2.25,0.22C102.44,104.55,100.4,106.59,100.4,106.55z"/>
	<path id="path32_00000044169509503388663260000000900999954413829300_" class="st1" d="M100.68,99.33
		c0.07-0.16,0.02-0.53-0.01-0.86c-0.04-0.37-0.16-0.76-0.22-1c-1.08-4.02-5.27-4.99-7.29-4.91c-0.14,1.23,2.56,4.26,7.21,4.94
		c0.62,0.15,1.52,0.24,2.15,0.25C102.5,97.74,100.61,99.49,100.68,99.33z"/>
	<path id="path34_00000023979751113178618600000009476192191031297983_" class="st1" d="M94.24,106.91
		c0.06-0.08,0.04-0.33,0.04-0.49c0.01-0.48-0.12-1.08-0.16-1.37c-0.58-4.09-3.91-5.85-6.03-5.79c-0.16,1.81,1.83,5.3,6.04,5.8
		c0.56,0.1,1.24,0.09,1.84,0.08C95.94,105.13,94.14,107.05,94.24,106.91z"/>
	<path id="path36_00000052064208209310483410000008904598214714241456_" class="st1" d="M93.45,112.1c-0.73-3.3-3.32-7.05-6.97-7.37
		c0.05,1.16,0.55,2.77,1.59,4.15c1.17,1.56,3.02,2.85,5.39,3.25c0.66,0.12,1.24,0.18,1.94,0.17l-1.72,1.78
		c-0.05,0.05-0.02-0.4-0.06-0.88C93.58,112.73,93.48,112.23,93.45,112.1L93.45,112.1z"/>
	<path id="path38_00000017516191280103402060000009389389240526036404_" class="st1" d="M83.43,113.04
		c-0.22-2.34-1.74-5.65-4.23-6.17c-0.06,0.81,0.43,3.17,1.02,4.2c0.68,1.17,1.75,1.38,3.34,1.85c0.45,0.14,0.65,0.18,1.14,0.24
		l-1.06,1.97c-0.02,0.04,0.02-0.28,0.03-0.61C83.7,114.19,83.44,113.14,83.43,113.04L83.43,113.04z"/>
	<path id="path40_00000005247350996477299620000004573094562844226738_" class="st1" d="M87.78,123.87
		c-1.18-3.45-3.71-8.13-7.27-9.14c0.28,1.14,0.71,3.46,1.95,5.02c2.02,2.53,5.2,4.02,7.97,4.6l-1.59,1.23
		c-0.04,0.03-0.1-0.4-0.23-0.87C88.48,124.25,87.83,124.01,87.78,123.87L87.78,123.87z"/>
	<path id="path42_00000130620209182418370950000017907353415073160585_" class="st1" d="M85.82,126.22
		c-0.57-1.66-2.01-3.65-3.72-4.13c0.13,0.55,0.57,1.4,1.16,2.15c0.97,1.22,2.52,2.27,3.86,2.55l-0.9,0.39
		c-0.02,0.01-0.05-0.19-0.11-0.42C86.05,126.54,85.84,126.29,85.82,126.22L85.82,126.22z"/>
	<path id="path44_00000168092779955523129950000006706382078158691753_" class="st0" d="M92.85,117.98
		c-1.11-3.56-4.3-7.85-7.73-8.19c0.06,1.25,0.87,3.49,1.99,4.98c1.74,2.31,5.05,3.89,7.98,3.85l-1.82,1.75
		c-0.06,0.05-0.02-0.43-0.06-0.95C93.16,118.91,92.89,118.12,92.85,117.98L92.85,117.98z"/>
	<path id="path46_00000170981417268436152960000007163001939121739954_" class="st1" d="M91.68,96.91c0.05-0.11,0.25-0.71,0.14-1.36
		c-0.34-1.97-1.41-3.08-4.35-2.55c-0.3,1.22,1.13,2.67,4.25,2.56c0.38,0.09,1.35-0.05,1.74-0.04
		C93.46,95.52,91.63,97.01,91.68,96.91z"/>
	<path id="path48_00000096050721880680967930000003669092059559974816_" class="st0" d="M110.96,98.67
		c-0.13-0.5-0.25-0.97-0.54-1.44c-0.22-0.35-0.4-0.73-0.6-1.02c-2.76-4.04-6.76-4.36-6.76-4.45c0.95,1.36,3.33,3.51,7.38,5.5
		c0.66,0.3,0.67,0.28,1.32,0.5C111.76,97.76,110.97,98.7,110.96,98.67L110.96,98.67z"/>
	<path id="path50_00000101802707011593728230000004844348494375382706_" class="st1" d="M114.32,99.35
		c-0.11-0.45-0.28-0.96-0.54-1.41c-0.19-0.33-0.32-0.59-0.5-0.87c-2.58-3.88-5.92-4.7-5.85-4.78c0.43,0.61,1.27,1.46,2.4,2.49
		c1.03,0.94,2.29,2.05,3.99,3.19c0.57,0.35,0.32,0.23,0.89,0.52C114.71,98.49,114.33,99.38,114.32,99.35L114.32,99.35z"/>
	<path id="path52_00000170245771784361320300000002000145348036662406_" class="st1" d="M117.77,106.75
		c0.02-0.64-0.37-1.81-0.6-2.49c-1.23-3.77-3.92-5.14-3.87-5.16c0.73,1.85,2.92,5.24,4.17,6.3c0.22,0.2,0.2,0.14,0.54,0.3
		C118.02,105.7,117.77,106.78,117.77,106.75L117.77,106.75z"/>
	<path id="path54_00000055694627984521406220000014179571516314321796_" class="st2" d="M116.13,107.61
		c0.03-0.93-0.37-2.18-0.69-3.09c-1.77-5.06-5.82-6.22-5.74-6.26c0.95,2.78,4.17,6.79,6.08,7.6c0.31,0.22,0.47,0.26,0.97,0.37
		C116.75,106.22,116.13,107.65,116.13,107.61L116.13,107.61z"/>
	<path id="path56_00000092458327810716194900000014914923029105898133_" class="st1" d="M111.56,106.08
		c-0.08-1.06-0.39-2.48-0.85-3.48c-2.56-5.59-7.5-6.11-7.41-6.17c0.92,2.99,5.05,7.01,7.88,7.66c0.39,0.21,0.99,0.33,1.58,0.39
		C112.76,104.48,111.56,106.13,111.56,106.08z"/>
	<path id="path58_00000016044789960736534700000008447320958874097543_" class="st2" d="M116.94,115.52
		c0.13-0.56,0.17-1.35,0.14-1.95c-0.18-3.45-2.71-4.51-2.81-4.43c0.18,3.36,2.44,5.77,3.3,5.18
		C117.57,114.32,116.93,115.54,116.94,115.52L116.94,115.52z"/>
	<path id="path60_00000065766597150637887600000017987892020013129900_" class="st0" d="M114.7,121.44c0.17-0.57,0.41-1.29,0.44-1.9
		c0.2-4.2-3.6-4.56-3.82-4.53c0.12,2.09,0.96,4.05,2.09,4.95c0.72,0.58,1.92,0.27,2.37,0.03
		C115.78,119.99,114.7,121.46,114.7,121.44L114.7,121.44z"/>
	<path id="path62_00000026123787010349611380000000442640045272000401_" class="st0" d="M112.05,110.04
		c-2.08-8.47-10.18-9.46-10.17-9.54c0.88,4.55,5.77,10.41,10.58,11.24c0.41,0.23,1.28,0.14,1.8,0.12c0,0-0.43,0.65-0.88,1.29
		c-0.22,0.32-0.44,0.64-0.62,0.88c-0.17,0.24-0.29,0.39-0.31,0.38s0.15-0.77,0.07-1.71C112.42,111.53,112.07,110.12,112.05,110.04
		L112.05,110.04z"/>
	<path id="path64_00000102505361970126973270000006518476563586632893_" class="st0" d="M104.51,116.89
		c-1.82-7.2-8.04-7.34-7.91-7.52c0.62,3.49,4.21,7.54,7.81,7.62c0.31,0.14,1.49,0.07,1.87,0.02c-0.54,0.56-0.95,1.12-1.65,1.66
		c-0.17,0.13-0.08,0.16-0.06,0.16C104.66,118.85,104.64,117.41,104.51,116.89L104.51,116.89z"/>
	<path id="path66_00000105426113553357391650000004547795240106234558_" class="st2" d="M106.81,124.57
		c-0.24-1.05-0.35-1.98-0.94-2.9c-3.58-5.62-9.9-5.91-9.78-6.12c1.74,7.77,8.27,10.03,12.71,8.75c-0.61,0.72-2.05,1.7-2.86,2.39
		c-0.19,0.17-0.08,0.2-0.06,0.21C106,126.92,106.96,125.23,106.81,124.57z"/>
	<path id="path68_00000053532545790428247050000010382241312239128496_" class="st1" d="M101.26,106.97
		c0.61,3.14,3.35,7.1,7.23,7.64c0.18,0,1.21-0.02,1.62,0.03c-0.54,0.55-0.94,0.97-1.38,1.58c-0.12,0.17-0.25,0.37-0.25,0.35
		c0.83-4.81-3.43-8.45-5.51-9.11C102.45,107.3,101.34,107.04,101.26,106.97L101.26,106.97z"/>
	<path id="path70_00000167395143442257755790000013003428222277548163_" class="st1" d="M106.61,118.15
		c0.19,1.62,0.73,3.23,1.53,4.39c0.8,1.16,1.86,1.88,3.11,1.71c0.79-0.11,1.52-0.32,2.56-0.82c-0.4,0.41-1.35,1.12-1.67,1.57
		c-0.09,0.12-0.3,0.41-0.3,0.4C115.19,119.4,107.82,118.29,106.61,118.15L106.61,118.15z"/>
	<path id="path72_00000026126569047071814090000011350783737382641592_" class="st1" d="M93.47,120.74
		c0.52,3.73,6.26,6.07,7.06,4.94c0.26,0.12,1.12,0.05,1.44,0.04c-0.46,0.42-0.84,0.72-1.21,1.19c-0.1,0.13-0.11,0.22-0.11,0.21
		c0.59-3.7-3.77-5.45-5.64-5.97C94.54,121.01,93.55,120.8,93.47,120.74L93.47,120.74z"/>
	<path id="path74_00000057848947992973895740000013899139818430201264_" class="st2" d="M90.38,91.3c0.04,0.02,1.39-0.65,2.28-0.82
		c0.14,0.51,0.39,0.89,0.04,1.86l2.34-1.33C95.04,91.11,90.34,91.29,90.38,91.3z"/>
	<path id="path76_00000031165848656269164840000013653285463943578523_" class="st1" d="M82.01,97.56c0.55-0.02,5.33-0.06,5.87-0.14
		c0.54-0.09,1.07-0.2,1.59-0.3c-0.87,0.9-1.89,1.7-2.78,2.7c-0.16,0.18-0.6,0.75-0.76,0.95l0.1-6.95L82.01,97.56L82.01,97.56z"/>
	<path id="path78_00000168105863156518396230000004845153619505366189_" class="st2" d="M85.24,117.63
		c0.44,0.96,1.05,1.87,1.94,3.09c1.33,1.8,4.48,3.54,7.03,3.55l-1.33,0.93c-0.05,0.04-0.11-0.59-0.37-1.19
		C91.4,121.33,88.18,117.85,85.24,117.63L85.24,117.63z"/>
	<path id="path80_00000049186179981103734670000014183054234439359112_" class="st0" d="M116.99,108.35c0.33,1.84,0.25,4,1.27,5.91
		C118.86,111.99,118.71,109.28,116.99,108.35z"/>
	<path id="path82_00000127017252335710613880000014730067752525253765_" class="st1" d="M116.61,116.33
		c0.34-0.08,0.76,0.03,1.1,0.23c-0.34,1.16-0.79,2.13-1.33,3.03C116.59,118.57,116.57,117.39,116.61,116.33L116.61,116.33z"/>
	<path id="path84_00000112596959419118047190000002748753567628270743_" class="st2" d="M81.11,98.27c-1.37,2.6-0.71,5.44,2.09,6.43
		l2.51-0.09l-1.77,2.33l0.09-1.68C83.96,102.81,84,98.68,81.11,98.27L81.11,98.27z"/>
	<path id="path86_00000092433637574377113350000005279788038003066754_" class="st0" d="M94.38,126.52
		c2.29-0.22,5.07,0.17,7.22,2.75l0.61,1.45l0.84-0.84l-2.05,0.09C98.29,129.97,95.61,129.15,94.38,126.52z"/>
	<path id="path88_00000032640978938119278550000017031482210453056939_" class="st0" d="M110.91,125.96
		c-0.98,1.26-1.44,1.52-2.93,2.05l-0.14-1.21l-0.09-1.58C109.12,125.21,109.84,125.17,110.91,125.96z"/>
	<path id="path90_00000085956156886332358630000005750103410569698738_" class="st1" d="M101.97,126.47c1.07,0,5.14,0.91,5.18,1.85
		c0.01,0.31-1.19,0.81-2.29,1.09C103.78,129.68,102.22,127.31,101.97,126.47L101.97,126.47z"/>
	<path id="path92_00000071560697587493262410000014214016907559041463_" class="st1" d="M78.51,102.28l-0.14,3.82
		c-0.21-0.69,1.91-3.2,1.63-3.22C79.26,102.83,79.08,102.72,78.51,102.28z"/>
	<path id="path94_00000082338812660543267490000018097201121401343922_" class="st0" d="M78.93,113.41l0.7,1.74l0.28-1.61l0.28-0.66
		c-1.29-0.8-2.16-0.05-2.28-0.59c-0.36-1.67-0.25-3.9-0.14-5.29C77.95,107.02,78.51,108.63,78.93,113.41L78.93,113.41z"/>
	<path id="path96_00000055683653301304021400000017493452146791302038_" class="st1" d="M96.76,129.55c1.55,0.72,1.65,0.78,3.35,0.7
		s-0.78,0.58-3.17,0.33L96.76,129.55L96.76,129.55z"/>
	<path id="path98_00000125569541826543058490000009550621530276763574_" class="st0" d="M95.45,129.83
		c1.38,0.58-7.46-0.02-8.38-4.01l-0.14-0.61c2.06,1.39,5.74,2.8,6.84,4.38l0.33,0.47l1.21,0.61L95.45,129.83L95.45,129.83z"/>
	<path id="path100_00000025400948277657561660000010116001324896655234_" class="st2" d="M82.45,121.18
		c0.22-0.14-1.68-1.38-2.98-3.21c-0.51-0.71-0.96-1.72-1.1-2.55l-0.3-1.82c1.46,2.69,2.99,5.88,3.37,7.01l0.34,1.02L82.45,121.18z"
		/>
</g>
<path id="path18_00000042714657256552260650000013871372062123943855_" sodipodi:nodetypes="csssssssssssccssssssccssscccccccccccccccccccccccccccccccccccccccccccccccccccccsssssccccccccccccsssccc" class="st3" d="
	M269.21,72.89c-3.81-4.07-7.87-7.07-12.18-9.01c-4.33-1.96-9.11-2.93-14.31-2.93c-4.22,0-8.32,0.84-12.33,2.52
	c-3.99,1.68-7.48,4.01-10.41,7c-3.06,3.12-5.34,6.59-6.87,10.43c-1.51,3.83-2.28,8.06-2.28,12.71c0,3.64,0.45,7,1.36,10.08
	c0.9,3.06,2.26,5.88,4.09,8.43c3.19,4.46,7.11,7.89,11.77,10.3c4.65,2.41,9.68,3.62,15.1,3.62c5.08,0,9.8-1.04,14.14-3.1
	c4.37-2.07,8.34-5.17,11.92-9.27v12.37c-3.96,2.82-8.21,4.94-12.76,6.4c-4.55,1.44-9.26,2.16-14.11,2.16
	c-4.22,0-8.32-0.62-12.31-1.85c-3.97-1.21-7.72-3.02-11.2-5.39c-5.82-3.94-10.23-8.81-13.3-14.59c-3.06-5.78-4.59-12.13-4.59-19.05
	c0-6.03,1.01-11.53,3.08-16.46c2.03-4.96,5.15-9.42,9.37-13.47c4.07-3.86,8.56-6.74,13.51-8.64c4.93-1.92,10.3-2.87,16.16-2.87
	c4.59,0,9.05,0.69,13.36,2.07c4.33,1.36,8.58,3.51,12.8,6.4v12.14L269.21,72.89L269.21,72.89z M285.39,132.52V54.15h42v8.51h-32.54
	v22.48h32.54v8.68h-32.54v30.02h32.54v8.68L285.39,132.52L285.39,132.52z M356.34,132.52V63.04h-22.52v-8.88h54.52v8.88h-22.41
	v69.49L356.34,132.52L356.34,132.52z M437.02,135.56l-24.76-56.31l-10,53.27H393l16.16-81.47l27.86,64.82l27.84-64.82l16.16,81.47
	h-9.24l-10.13-53.27L437.02,135.56z M521.92,71.65l-12.67,28.85h25.34L521.92,71.65L521.92,71.65z M521.92,51.05l36.24,81.47h-10.28
	l-10.36-24.03h-31.1l-10.34,24.03H485.8L521.92,51.05z M562.89,132.52V54.15h18.7c5.36,0,9.26,0.3,11.74,0.88
	c2.5,0.6,4.68,1.6,6.57,3.04c2.35,1.81,4.2,4.25,5.49,7.3c1.32,3.06,1.98,6.44,1.98,10.15c0,6.4-1.83,11.29-5.49,14.63
	c-3.64,3.34-8.99,5-16.03,5h-1.68l30.43,37.37h-12.04l-29.07-37.37h-1.34v37.37H562.89L562.89,132.52z M572.14,62.03v26.22h7.22
	c7.41,0,12.37-0.93,14.87-2.82c2.5-1.87,3.75-5.13,3.75-9.8c0-5.04-1.29-8.56-3.86-10.58c-2.58-2.02-7.5-3.02-14.76-3.02
	L572.14,62.03L572.14,62.03z"/>
<g>
	<path id="path3005_00000116936137205818423010000012720628380913619365_" class="st3" d="M228.26,156.69
		c-0.83-0.92-1.74-1.62-2.7-2.05c-0.97-0.45-2.03-0.68-3.18-0.68c-0.92,0-1.85,0.2-2.73,0.59c-0.88,0.38-1.67,0.92-2.3,1.6
		c-0.68,0.72-1.17,1.51-1.51,2.39s-0.5,1.85-0.5,2.91c0,0.83,0.09,1.6,0.29,2.3s0.5,1.35,0.9,1.94c0.7,1.01,1.58,1.8,2.61,2.37
		c1.04,0.54,2.14,0.83,3.36,0.83c1.13,0,2.16-0.25,3.13-0.72s1.85-1.17,2.64-2.12v2.82c-0.88,0.65-1.83,1.13-2.82,1.46
		c-1.01,0.34-2.05,0.5-3.13,0.5c-0.92,0-1.85-0.14-2.73-0.43c-0.88-0.27-1.71-0.7-2.48-1.24c-1.28-0.9-2.28-2.03-2.95-3.34
		c-0.68-1.33-1.01-2.77-1.01-4.35c0-1.37,0.23-2.64,0.68-3.76c0.45-1.13,1.15-2.16,2.07-3.09c0.9-0.88,1.89-1.53,3-1.98
		c1.08-0.43,2.28-0.65,3.58-0.65c1.01,0,2.01,0.16,2.97,0.47c0.97,0.32,1.89,0.81,2.84,1.46v2.77L228.26,156.69L228.26,156.69z
		 M231.84,170.32V152.4h9.31v1.94h-7.21v5.14h7.21v1.98h-7.21v6.85h7.21v1.98h-9.31V170.32z M244.71,170.32v-18.61l12.91,14.31
		v-13.61h2.01v18.61l-12.91-14.15v13.45H244.71L244.71,170.32z M266.93,170.32v-15.89h-5v-2.03h12.08v2.03h-4.96v15.89H266.93z
		 M276.37,170.32V152.4h4.15c1.19,0,2.05,0.07,2.59,0.2c0.54,0.14,1.04,0.36,1.44,0.7c0.52,0.41,0.92,0.97,1.22,1.67
		c0.29,0.7,0.43,1.46,0.43,2.32c0,1.46-0.41,2.59-1.22,3.34c-0.81,0.77-1.98,1.15-3.56,1.15h-0.38l6.74,8.54h-2.66l-6.44-8.54h-0.29
		v8.54L276.37,170.32L276.37,170.32z M278.42,154.21v5.99h1.6c1.65,0,2.75-0.2,3.29-0.65c0.56-0.43,0.83-1.17,0.83-2.25
		c0-1.15-0.29-1.96-0.86-2.41c-0.56-0.45-1.67-0.7-3.27-0.7h-1.6L278.42,154.21L278.42,154.21z M298.21,168.79
		c0.97,0,1.87-0.18,2.75-0.56c0.88-0.36,1.67-0.92,2.37-1.62s1.22-1.49,1.58-2.39c0.36-0.88,0.54-1.83,0.54-2.82
		s-0.18-1.96-0.54-2.86c-0.36-0.9-0.9-1.71-1.58-2.39c-0.7-0.72-1.46-1.24-2.34-1.62c-0.88-0.36-1.8-0.54-2.77-0.54
		c-0.99,0-1.92,0.18-2.79,0.54c-0.88,0.36-1.65,0.9-2.32,1.6c-0.7,0.72-1.22,1.51-1.58,2.41c-0.36,0.9-0.54,1.85-0.54,2.84
		s0.18,1.94,0.54,2.82c0.36,0.88,0.88,1.69,1.58,2.39c0.7,0.72,1.49,1.26,2.37,1.62C296.31,168.61,297.24,168.79,298.21,168.79
		L298.21,168.79z M307.65,161.4c0,1.28-0.23,2.48-0.7,3.63c-0.47,1.13-1.15,2.14-2.03,3.02c-0.9,0.88-1.92,1.55-3.09,2.03
		c-1.17,0.47-2.37,0.72-3.61,0.72s-2.46-0.25-3.61-0.72s-2.19-1.15-3.06-2.03c-0.9-0.88-1.58-1.89-2.05-3.04
		c-0.47-1.13-0.7-2.34-0.7-3.61c0-1.28,0.23-2.48,0.7-3.63c0.47-1.13,1.15-2.14,2.05-3.04c0.88-0.88,1.92-1.55,3.06-2.03
		c1.15-0.47,2.37-0.72,3.61-0.72c1.26,0,2.46,0.25,3.63,0.72s2.19,1.15,3.06,2.03s1.58,1.89,2.03,3.02
		C307.4,158.9,307.65,160.09,307.65,161.4L307.65,161.4z"/>
	<polygon class="st3" points="321.51,170.32 321.51,154.43 316.4,154.43 316.4,152.41 328.82,152.41 328.82,154.43 323.7,154.43 
		323.7,170.32 	"/>
	<polygon class="st3" points="331.2,170.32 331.2,152.41 340.76,152.41 340.76,154.34 333.37,154.34 333.37,159.48 340.78,159.48 
		340.78,161.46 333.37,161.46 333.37,168.31 340.78,168.31 340.78,170.3 331.2,170.3 	"/>
	<path class="st3" d="M359.12,156.65c-0.86-0.92-1.8-1.62-2.77-2.05c-0.99-0.45-2.07-0.68-3.27-0.68c-0.97,0-1.89,0.2-2.82,0.59
		c-0.9,0.38-1.71,0.92-2.37,1.6c-0.7,0.72-1.22,1.51-1.55,2.39c-0.34,0.88-0.52,1.85-0.52,2.91c0,0.83,0.11,1.6,0.32,2.3
		s0.52,1.35,0.92,1.94c0.72,1.01,1.62,1.8,2.68,2.37c1.06,0.54,2.21,0.83,3.43,0.83c1.15,0,2.23-0.25,3.22-0.72s1.89-1.17,2.7-2.12
		v2.82c-0.9,0.65-1.87,1.13-2.91,1.46s-2.12,0.5-3.22,0.5c-0.97,0-1.89-0.14-2.79-0.43c-0.9-0.27-1.76-0.7-2.55-1.24
		c-1.33-0.9-2.32-2.03-3.02-3.34c-0.7-1.33-1.06-2.77-1.06-4.35c0-1.37,0.23-2.64,0.7-3.76c0.47-1.13,1.17-2.16,2.14-3.09
		c0.92-0.88,1.94-1.53,3.06-1.98c1.13-0.43,2.34-0.65,3.67-0.65c1.06,0,2.07,0.16,3.04,0.47c0.99,0.32,1.96,0.81,2.91,1.46v2.77
		L359.12,156.65L359.12,156.65z"/>
	<polygon class="st3" points="362.8,170.32 362.8,151.71 376.05,166.02 376.05,152.41 378.1,152.41 378.1,171.02 364.85,156.87 
		364.85,170.32 	"/>
	<path class="st3" d="M400.27,157.72c-0.47-1.13-1.17-2.14-2.1-3.02c-0.9-0.88-1.96-1.55-3.15-2.03s-2.43-0.72-3.72-0.72
		c-1.26,0-2.5,0.25-3.7,0.72c-1.19,0.47-2.25,1.15-3.15,2.03c-0.92,0.9-1.65,1.92-2.12,3.04c-0.47,1.15-0.72,2.34-0.72,3.63
		c0,1.26,0.23,2.48,0.72,3.61c0.5,1.15,1.19,2.16,2.12,3.04s1.96,1.55,3.15,2.03c1.17,0.47,2.41,0.72,3.7,0.72
		c1.28,0,2.52-0.25,3.72-0.72c1.17-0.47,2.23-1.15,3.15-2.03c0.92-0.88,1.62-1.89,2.1-3.02c0.47-1.15,0.72-2.34,0.72-3.63
		C400.99,160.07,400.75,158.87,400.27,157.72z M398.18,164.19c-0.36,0.9-0.9,1.69-1.62,2.39c-0.7,0.7-1.51,1.26-2.41,1.62
		c-0.9,0.38-1.85,0.56-2.84,0.56s-1.94-0.18-2.84-0.59c-0.88-0.36-1.69-0.9-2.41-1.62c-0.72-0.7-1.26-1.51-1.62-2.39
		c-0.38-0.88-0.56-1.83-0.56-2.82s0.18-1.94,0.56-2.84c0.36-0.9,0.92-1.69,1.62-2.41c0.7-0.7,1.49-1.24,2.39-1.6
		s1.85-0.54,2.86-0.54c0.99,0,1.94,0.18,2.84,0.54c0.9,0.38,1.71,0.9,2.41,1.62c0.7,0.68,1.24,1.49,1.62,2.39s0.56,1.87,0.56,2.86
		S398.56,163.31,398.18,164.19z"/>
	<polygon class="st3" points="404.51,170.32 404.51,152.41 406.67,152.41 406.67,168.29 413.52,168.29 413.52,170.32 	"/>
	<path class="st3" d="M433.89,157.72c-0.47-1.13-1.17-2.14-2.1-3.02c-0.9-0.88-1.96-1.55-3.15-2.03s-2.43-0.72-3.72-0.72
		c-1.26,0-2.5,0.25-3.7,0.72c-1.19,0.47-2.25,1.15-3.15,2.03c-0.92,0.9-1.65,1.92-2.12,3.04c-0.47,1.15-0.72,2.34-0.72,3.63
		c0,1.26,0.23,2.48,0.72,3.61c0.5,1.15,1.19,2.16,2.12,3.04c0.92,0.88,1.96,1.55,3.15,2.03c1.17,0.47,2.41,0.72,3.7,0.72
		c1.28,0,2.52-0.25,3.72-0.72c1.17-0.47,2.23-1.15,3.15-2.03c0.92-0.88,1.62-1.89,2.1-3.02c0.47-1.15,0.72-2.34,0.72-3.63
		C434.62,160.07,434.39,158.87,433.89,157.72z M431.8,164.19c-0.36,0.9-0.9,1.69-1.62,2.39c-0.7,0.7-1.51,1.26-2.41,1.62
		c-0.9,0.38-1.85,0.56-2.84,0.56s-1.94-0.18-2.84-0.56c-0.88-0.36-1.69-0.9-2.41-1.62c-0.72-0.7-1.26-1.51-1.62-2.39
		c-0.38-0.88-0.56-1.83-0.56-2.82s0.18-1.94,0.56-2.84c0.36-0.9,0.9-1.69,1.62-2.41c0.7-0.7,1.49-1.24,2.39-1.6
		c0.9-0.36,1.85-0.54,2.86-0.54c0.99,0,1.94,0.18,2.84,0.54s1.69,0.9,2.41,1.6c0.7,0.68,1.24,1.49,1.62,2.39s0.56,1.87,0.56,2.86
		S432.18,163.31,431.8,164.19z"/>
	<polygon class="st3" points="423.17,150.03 425.69,145.77 428.17,145.77 424.63,150.03 	"/>
	<rect x="454.28" y="152.41" class="st3" width="2.16" height="17.92"/>
	<path class="st3" d="M475.54,156.65c-0.86-0.92-1.78-1.62-2.77-2.05c-0.99-0.45-2.07-0.68-3.27-0.68c-0.97,0-1.89,0.2-2.82,0.59
		c-0.9,0.38-1.71,0.92-2.37,1.6c-0.7,0.72-1.22,1.51-1.55,2.39c-0.34,0.88-0.52,1.85-0.52,2.91c0,0.83,0.09,1.6,0.32,2.3
		c0.2,0.7,0.52,1.35,0.92,1.94c0.72,1.01,1.62,1.8,2.68,2.37c1.06,0.54,2.21,0.83,3.43,0.83c1.15,0,2.23-0.25,3.22-0.72
		s1.89-1.17,2.7-2.12v2.82c-0.9,0.65-1.87,1.13-2.91,1.46s-2.12,0.5-3.22,0.5c-0.97,0-1.89-0.14-2.79-0.43
		c-0.9-0.27-1.76-0.7-2.55-1.24c-1.33-0.9-2.32-2.03-3.02-3.34c-0.7-1.33-1.06-2.77-1.06-4.35c0-1.37,0.23-2.64,0.7-3.76
		c0.47-1.13,1.17-2.16,2.14-3.09c0.92-0.88,1.94-1.53,3.06-1.98c1.13-0.43,2.34-0.65,3.67-0.65c1.06,0,2.05,0.16,3.04,0.47
		c0.99,0.32,1.96,0.81,2.91,1.46v2.77L475.54,156.65L475.54,156.65z"/>
	<path class="st3" d="M497.03,157.72c-0.47-1.13-1.17-2.14-2.1-3.02c-0.9-0.88-1.96-1.55-3.15-2.03c-1.19-0.47-2.43-0.72-3.72-0.72
		c-1.26,0-2.5,0.25-3.7,0.72c-1.19,0.47-2.25,1.15-3.15,2.03c-0.92,0.9-1.65,1.92-2.12,3.04c-0.47,1.15-0.72,2.34-0.72,3.63
		c0,1.26,0.23,2.48,0.72,3.61c0.5,1.15,1.19,2.16,2.12,3.04c0.92,0.88,1.96,1.55,3.15,2.03c1.17,0.47,2.41,0.72,3.7,0.72
		s2.52-0.25,3.72-0.72c1.17-0.47,2.23-1.15,3.15-2.03c0.92-0.88,1.62-1.89,2.1-3.02c0.47-1.15,0.72-2.34,0.72-3.63
		C497.75,160.07,497.53,158.87,497.03,157.72z M494.96,164.19c-0.36,0.9-0.9,1.69-1.62,2.39c-0.7,0.7-1.51,1.26-2.41,1.62
		c-0.9,0.38-1.85,0.56-2.84,0.56c-1.01,0-1.96-0.18-2.84-0.56c-0.88-0.36-1.69-0.9-2.41-1.62c-0.72-0.7-1.26-1.51-1.62-2.39
		c-0.38-0.88-0.56-1.83-0.56-2.82s0.18-1.94,0.56-2.84c0.36-0.9,0.9-1.69,1.62-2.41c0.7-0.7,1.49-1.24,2.39-1.6s1.85-0.54,2.86-0.54
		c0.99,0,1.94,0.18,2.84,0.54s1.69,0.9,2.41,1.6c0.7,0.68,1.24,1.49,1.62,2.39s0.56,1.87,0.56,2.86S495.34,163.31,494.96,164.19z"/>
	<path class="st3" d="M522.69,157.13c-0.54-1.25-1.31-2.25-2.36-3.04c-0.77-0.6-1.71-1.02-2.76-1.28s-2.84-0.4-5.43-0.4h-3.47v17.91
		h3.47h0.77c2.13,0,3.7-0.14,4.72-0.4c1-0.26,1.91-0.68,2.7-1.28c1.02-0.77,1.82-1.79,2.36-3.01s0.8-2.64,0.8-4.24
		C523.49,159.77,523.23,158.35,522.69,157.13z M520.7,164.69c-0.4,0.97-0.97,1.76-1.71,2.36c-0.57,0.48-1.28,0.8-2.13,1
		s-2.42,0.28-4.64,0.28h-1.34V154.4h1.36c2.19,0,3.73,0.11,4.61,0.31s1.59,0.51,2.16,1c0.77,0.63,1.31,1.42,1.71,2.36
		c0.37,0.94,0.57,2.05,0.57,3.3S521.1,163.72,520.7,164.69z"/>
	<path id="path3011_00000177451137955817926520000008403236979431440261_" class="st3" d="M567.97,171.03l-5.91-12.88l-2.39,12.17
		h-2.22l3.87-18.63l6.65,14.81l6.65-14.81l3.87,18.63h-2.22l-2.42-12.17L567.97,171.03z M588.24,156.38l-3.01,6.6h6.06
		L588.24,156.38z M588.24,151.69l8.67,18.63h-2.45l-2.47-5.49h-7.45l-2.47,5.49h-2.45L588.24,151.69z M598.05,170.32v-17.91h4.47
		c1.28,0,2.22,0.06,2.82,0.2c0.6,0.14,1.11,0.37,1.56,0.68c0.57,0.43,1,0.97,1.31,1.68s0.48,1.48,0.48,2.3
		c0,1.48-0.43,2.59-1.31,3.36s-2.16,1.14-3.84,1.14h-0.4l7.28,8.53h-2.87l-6.94-8.53h-0.31v8.53h-2.25L598.05,170.32L598.05,170.32z
		 M600.24,154.23v6h1.73c1.76,0,2.96-0.2,3.55-0.65c0.6-0.43,0.91-1.17,0.91-2.25c0-1.14-0.31-1.96-0.91-2.42
		c-0.63-0.45-1.79-0.68-3.53-0.68L600.24,154.23L600.24,154.23z"/>
	<polygon class="st3" points="445.59,161.06 451.1,152.41 448.55,152.41 444.31,159.04 440.09,152.41 437.5,152.41 443.01,161.07 
		437.1,170.32 439.69,170.32 444.29,163.09 448.89,170.32 451.47,170.32 	"/>
	<path class="st3" d="M545.59,157.72c-0.47-1.13-1.17-2.14-2.1-3.02c-0.9-0.88-1.96-1.55-3.15-2.03c-1.19-0.47-2.43-0.72-3.72-0.72
		c-1.26,0-2.5,0.25-3.7,0.72c-1.19,0.47-2.25,1.15-3.15,2.03c-0.92,0.9-1.65,1.92-2.12,3.04c-0.47,1.15-0.72,2.34-0.72,3.63
		c0,1.26,0.23,2.48,0.72,3.61c0.5,1.15,1.19,2.16,2.12,3.04c0.92,0.88,1.96,1.55,3.15,2.03c1.17,0.47,2.41,0.72,3.7,0.72
		s2.52-0.25,3.72-0.72c1.17-0.47,2.23-1.15,3.15-2.03c0.92-0.88,1.62-1.89,2.1-3.02c0.47-1.15,0.72-2.34,0.72-3.63
		C546.31,160.07,546.09,158.87,545.59,157.72z M543.52,164.19c-0.36,0.9-0.9,1.69-1.62,2.39c-0.7,0.7-1.51,1.26-2.41,1.62
		c-0.9,0.38-1.85,0.56-2.84,0.56c-1.01,0-1.96-0.18-2.84-0.56c-0.88-0.36-1.69-0.9-2.41-1.62c-0.72-0.7-1.26-1.51-1.62-2.39
		c-0.38-0.88-0.56-1.83-0.56-2.82s0.18-1.94,0.56-2.84c0.36-0.9,0.9-1.69,1.62-2.41c0.7-0.7,1.49-1.24,2.39-1.6s1.85-0.54,2.86-0.54
		c0.99,0,1.94,0.18,2.84,0.54s1.69,0.9,2.41,1.6c0.7,0.68,1.24,1.49,1.62,2.39s0.56,1.87,0.56,2.86
		C544.08,162.37,543.9,163.31,543.52,164.19z"/>
</g>
</svg>
