<svg id="Capa_1" data-name="Capa 1" xmlns="http://www.w3.org/2000/svg" viewBox="0 0 425.2 301.26"><defs><style>.cls-1{fill:#0062a7;}</style></defs><path class="cls-1" d="M424.56,293.82a11,11,0,0,1-9.09-4.3Q411,283.88,411,273.41q0-10.21,4.32-15.52a11.29,11.29,0,0,1,9.21-4.25,11.67,11.67,0,0,1,9.58,4.28q4.32,5.4,4.32,16.37,0,10.13-3.92,14.83a12.43,12.43,0,0,1-9.95,4.7m.06,2.24a19.85,19.85,0,0,0,14.89-6.44,22.48,22.48,0,0,0,6.15-16.18,21.82,21.82,0,0,0-6.11-15.78,19.38,19.38,0,0,0-14.43-6.33,20.52,20.52,0,0,0-14.41,5.58q-6.93,6.45-6.94,16.63,0,10,6,16.24a19.75,19.75,0,0,0,14.84,6.28m-37.26,50.78a6.63,6.63,0,0,1,.87,3.18,6.42,6.42,0,0,1-2.29,4.92,8.88,8.88,0,0,1-6.23,2.08,13.13,13.13,0,0,1-6.26-1.51,10.69,10.69,0,0,1-4.24-3.8,20.75,20.75,0,0,1-2.2-6.89h-1.17v14.66H367a3.78,3.78,0,0,1,.67-2,1.65,1.65,0,0,1,1.25-.48,18.6,18.6,0,0,1,3.89,1,36.75,36.75,0,0,0,4.06,1.15,20.35,20.35,0,0,0,3.5.28,13.69,13.69,0,0,0,9.7-3.51,11.08,11.08,0,0,0,3.76-8.37,10.69,10.69,0,0,0-1.18-4.9,12.06,12.06,0,0,0-3.38-4.05,63.25,63.25,0,0,0-8.18-4.93q-7.35-3.95-9.3-6.31a5.42,5.42,0,0,1-1.36-3.57,6,6,0,0,1,2.15-4.55,7.6,7.6,0,0,1,5.42-2,11.48,11.48,0,0,1,5.61,1.48,10.47,10.47,0,0,1,4.18,4,18.44,18.44,0,0,1,2,6.78H391V314.76h-1.16a3.92,3.92,0,0,1-.84,2,1.88,1.88,0,0,1-1.34.48,7.37,7.37,0,0,1-2.49-.79,18.08,18.08,0,0,0-7.22-1.67,12.57,12.57,0,0,0-9,3.33,10.54,10.54,0,0,0-3.53,7.93,10,10,0,0,0,1.2,4.86,13.18,13.18,0,0,0,3.51,4,65.36,65.36,0,0,0,7.81,4.91,77.59,77.59,0,0,1,6.72,4,9.58,9.58,0,0,1,2.69,3m-64-31.1H311.71v1.17a10,10,0,0,1,2.77.28,10.34,10.34,0,0,1,2.83,1.3,19.24,19.24,0,0,1,2.82,2.86V351.1c0,2.39-.23,3.93-.69,4.6a4.39,4.39,0,0,1-3.88,1.64h-1.48v1.16H329v-1.16h-1.51a4.7,4.7,0,0,1-3.69-1.33c-.57-.65-.85-2.29-.85-4.91V324.76L351.1,359.2h1.14V323.15c0-2.39.23-3.93.69-4.6a4.33,4.33,0,0,1,3.85-1.64h1.51v-1.17H343.41v1.17h1.48a4.69,4.69,0,0,1,3.69,1.32c.59.65.88,2.29.88,4.92v24.67Zm-18.14,0h-33v1.17h1.52a4.88,4.88,0,0,1,3.78,1.26c.55.63.82,2.3.82,5V351a14.93,14.93,0,0,1-.36,4.13,2.64,2.64,0,0,1-1.37,1.51,6,6,0,0,1-2.87.73h-1.52v1.16h33l3.69-10.72h-1.26a24.09,24.09,0,0,1-4,5.9,7.83,7.83,0,0,1-3.15,2,19.51,19.51,0,0,1-5.26.5h-7.26a5.41,5.41,0,0,1-2.4-.36,2,2,0,0,1-.88-1,13,13,0,0,1-.25-3.45v-14.1h9.4a9.51,9.51,0,0,1,4,.63,4,4,0,0,1,1.86,1.74,16.63,16.63,0,0,1,.89,4h1.16V328.77h-1.16c-.13,2.43-.74,4.14-1.84,5.1-.82.74-2.45,1.11-4.88,1.11h-9.4V318.07h11.73a14.12,14.12,0,0,1,4.45.48,5,5,0,0,1,2.38,1.92,14.43,14.43,0,0,1,1.46,4.64h1.23Zm-22.12-90.37c10.85,0,23.38-2.88,31.4-9H251.75c8.11,6.1,20.46,9,31.31,9m-38.42-17.19H322.1a30.62,30.62,0,0,0,1.58-8.31H243.15a35.21,35.21,0,0,0,1.49,8.31m39.2,54.16H285l-.47-10H249.65l-.5,10h1.2a9.21,9.21,0,0,1,1.39-4.6,5.78,5.78,0,0,1,2.8-2.3,14.08,14.08,0,0,1,4.26-.45h5.14v32.68c0,2.39-.23,3.93-.69,4.6a4.36,4.36,0,0,1-3.85,1.64h-1.51v1.17H276v-1.17h-1.48a4.75,4.75,0,0,1-3.69-1.32c-.57-.65-.85-2.3-.85-4.92V255h6a9,9,0,0,1,4.27.87,6.37,6.37,0,0,1,2.61,2.7,12,12,0,0,1,.94,3.78M238.9,318.73a27.58,27.58,0,0,1,4.95-.59,9,9,0,0,1,6.64,2.5,8.85,8.85,0,0,1,2.51,6.52,8.5,8.5,0,0,1-3.11,6.75c-2.07,1.76-5.15,2.65-9.22,2.65l-.73,0-1,0Zm3.4-3H226.73v1.17h1.6A4.62,4.62,0,0,1,232,318.3c.59.65.88,2.32.88,5v27.63c0,2.43-.21,4-.66,4.63a4.3,4.3,0,0,1-3.88,1.77h-1.6v1.16h18.32v-1.16h-1.67a4.49,4.49,0,0,1-3.6-1.39c-.59-.65-.88-2.32-.88-5V338.51c.33,0,.66,0,1,0s.6,0,.88,0c.67,0,1.54,0,2.62-.06l14.47,20h11.42v-1.16a13.13,13.13,0,0,1-5.68-1.77,21.82,21.82,0,0,1-5.2-5.61l-8.83-12.27q5.38-1.2,8-4.1a10,10,0,0,0,2.57-6.85,9.54,9.54,0,0,0-2.25-6.35,11.38,11.38,0,0,0-5.49-3.65,36.66,36.66,0,0,0-10-1m-46.68,0H177.14v1.17h1.61a4.47,4.47,0,0,1,3.51,1.23c.72.81,1.09,2.54,1.09,5.17V340q0,7.73,1,10.53a13.1,13.1,0,0,0,5.14,6.52c2.42,1.63,6,2.43,10.63,2.43q6.44,0,10.17-2.53a12.58,12.58,0,0,0,5-6.09,30.42,30.42,0,0,0,1.28-10V323.56c0-2.37.22-3.89.67-4.54a4.32,4.32,0,0,1,3.87-2.11h1.61v-1.17H207.6v1.17h1.61a4.62,4.62,0,0,1,3.66,1.39c.59.67.88,2.34.88,5v17.31q0,6.83-1.21,9.67A9.81,9.81,0,0,1,208,355a15.24,15.24,0,0,1-7.51,1.83,12.06,12.06,0,0,1-5.53-1.16,9,9,0,0,1-3.45-3,12.07,12.07,0,0,1-1.66-5,42,42,0,0,1-.46-5.71V323.31c0-2.4.27-4,.79-4.73a4.24,4.24,0,0,1,3.79-1.67h1.64Zm-58.17,21.1q0-10.23,4.32-15.52a11.3,11.3,0,0,1,9.21-4.26,11.65,11.65,0,0,1,9.59,4.29q4.32,5.4,4.32,16.37,0,10.13-3.93,14.82a12.37,12.37,0,0,1-9.94,4.7,11.07,11.07,0,0,1-9.09-4.29q-4.49-5.64-4.48-16.11m-.28-16.5q-6.93,6.44-6.94,16.62,0,10,6,16.25a20.56,20.56,0,0,0,29.72-.16,22.48,22.48,0,0,0,6.15-16.18,21.8,21.8,0,0,0-6.1-15.78,19.39,19.39,0,0,0-14.43-6.33,20.48,20.48,0,0,0-14.41,5.58m15.71-68h-33v1.17h1.51a4.9,4.9,0,0,1,3.79,1.26c.54.63.82,2.3.82,5v27.78a14.41,14.41,0,0,1-.37,4.13,2.61,2.61,0,0,1-1.37,1.51,5.92,5.92,0,0,1-2.87.73h-1.51v1.17h33l3.69-10.73h-1.26a24.09,24.09,0,0,1-4,5.9,7.9,7.9,0,0,1-3.15,2,19.5,19.5,0,0,1-5.27.51h-7.26a5.35,5.35,0,0,1-2.39-.37,1.94,1.94,0,0,1-.88-1,12.79,12.79,0,0,1-.26-3.45v-14.1h9.4a9.29,9.29,0,0,1,4,.64,3.91,3.91,0,0,1,1.87,1.73,16.29,16.29,0,0,1,.88,4h1.17V265.34h-1.17q-.19,3.66-1.83,5.11c-.82.73-2.45,1.1-4.89,1.1h-9.4V254.64h11.74a14.05,14.05,0,0,1,4.44.48,5,5,0,0,1,2.38,1.92,14.64,14.64,0,0,1,1.47,4.64h1.23Zm-60-139.7A9.23,9.23,0,1,0,83.62,122a9.24,9.24,0,0,0,9.23-9.34m13.91,161.18q0,8.81-4.83,13.94a15.93,15.93,0,0,1-12.14,5.14,32.1,32.1,0,0,1-6.72-.88V255.62a26.81,26.81,0,0,1,6.47-.91,16.28,16.28,0,0,1,12.39,5.11q4.83,5.12,4.83,14m7.19-.31a22.4,22.4,0,0,0-3-11.74,17.35,17.35,0,0,0-8-7.25q-5-2.18-14.58-2.18H70.87v1.17h1.6a4.59,4.59,0,0,1,3.66,1.39c.59.67.89,2.34.89,5v27.63c0,2.41-.23,4-.7,4.67a4.25,4.25,0,0,1-3.85,1.73h-1.6v1.17H90q12.45,0,18.54-6.69A21.36,21.36,0,0,0,114,273.48m13.11-160.87a9.23,9.23,0,1,0-9.23,9.34,9.24,9.24,0,0,0,9.23-9.34m34.21,0A9.23,9.23,0,1,0,152,122a9.24,9.24,0,0,0,9.23-9.34m24.31,147a11.81,11.81,0,0,1,1.14,5.16,9.2,9.2,0,0,1-2.39,6.57,7.46,7.46,0,0,1-5.66,2.54,17.59,17.59,0,0,1-2.2-.16c-.87-.1-1.86-.26-3-.47V255.47a18.63,18.63,0,0,1,4.13-.6,9.36,9.36,0,0,1,4.73,1.18,7.83,7.83,0,0,1,3.22,3.56m.47-6.12a28,28,0,0,0-9.05-1.18H161.32v1.17h1.62a4.65,4.65,0,0,1,3.66,1.39c.56.65.85,2.32.85,5v27.63c0,2.44-.21,4-.63,4.63a4.31,4.31,0,0,1-3.88,1.77h-1.62v1.17h18.33v-1.17H178a4.55,4.55,0,0,1-3.63-1.38c-.58-.66-.88-2.33-.88-5V275.05c1.37.3,2.65.52,3.85.66a27,27,0,0,0,3.34.22q6.31,0,9.76-3.28a11.2,11.2,0,0,0,3.46-8.51,10.25,10.25,0,0,0-2.27-6.65,12.47,12.47,0,0,0-5.59-4m9.43-140.88a9.23,9.23,0,1,0-9.23,9.34,9.24,9.24,0,0,0,9.23-9.34m21.71,139.7H198.71v1.17h1.61a4.49,4.49,0,0,1,3.52,1.23q1.08,1.23,1.08,5.17V276.6q0,7.72,1,10.53a13.22,13.22,0,0,0,5.14,6.53q3.63,2.43,10.63,2.43,6.44,0,10.17-2.54a12.52,12.52,0,0,0,5-6.09,30.65,30.65,0,0,0,1.28-10V260.13c0-2.37.22-3.89.66-4.54a4.33,4.33,0,0,1,3.88-2.11h1.61v-1.17H229.18v1.17h1.61a4.6,4.6,0,0,1,3.65,1.39c.59.67.89,2.34.89,5v17.31q0,6.82-1.22,9.67a9.85,9.85,0,0,1-4.52,4.69,15.27,15.27,0,0,1-7.51,1.83,11.87,11.87,0,0,1-5.53-1.17,9,9,0,0,1-3.46-3,12,12,0,0,1-1.65-5,40.43,40.43,0,0,1-.46-5.71V259.88c0-2.39.26-4,.79-4.73a4.23,4.23,0,0,1,3.78-1.67h1.64Zm12.5-139.7a9.23,9.23,0,1,0-9.24,9.34,9.25,9.25,0,0,0,9.24-9.34m53.37,41-39.91,10.81v27h8.6V174.81a5.24,5.24,0,1,1,10.47,0v16.61h9.31V173.89a11.53,11.53,0,1,1,23.05,0v17.53h9.32V174.81a5.23,5.23,0,1,1,10.46,0v16.61H323v-27Zm27.8-.58c-1-1.15-2.35-2.35-1.54-4,.77-.91,1.64-1.92,1.06-3.27a2,2,0,0,0-1.82-1.39c-1.44,0-3.27-.05-4.13,1.15-1.44,2.45,1.29,5.14-.39,7.25a1.53,1.53,0,0,1-1.15.48c-1-.62-1.59-1.87-3.27-1.39a13.19,13.19,0,0,1-1.24.53c-.05.05-.29.19-.34.38a1.7,1.7,0,0,0,0,.48,3.5,3.5,0,0,1-1.11,1.59l3.42,1.34c.38.29-.15.87,0,1.39l.57-.14,1.34.48,1.4-.34c.19-.23.33-.67.86-.76,1-.1,1.06-1.3,1.59-2l1.15.48.14-2.07c.72-.72,2.07.58,3.08.15.14,0,.24-.1.33-.34m-27.8-40.38h27.23l2.16-8.21H253.67l2.16,8.21ZM296,130a.77.77,0,1,0,.77.77A.79.79,0,0,0,296,130m8.22-3.94,9.5-8.64-11.18,6.24Zm9.17-22.66a4.13,4.13,0,1,0-4.08-4.13,4.09,4.09,0,0,0,4.08,4.13m-10,25.6,1.16-.83-3.85-5.37-1.24.86Zm-5.09-25.6a4.13,4.13,0,1,0-4.08-4.13,4.09,4.09,0,0,0,4.08,4.13m-15.12,0A4.13,4.13,0,1,0,279,99.27a4.09,4.09,0,0,0,4.09,4.13m-15.13,0a4.13,4.13,0,1,0-4.08-4.13A4.09,4.09,0,0,0,268,103.4m-8,54.41v-6.2c0-2.21,3.79-2.3,3.79,0v4.81l12.44-2.93v-1.88H266c-.1-5.09-8.11-5.09-8.26,0h-9.84v9.32Zm-4.71-21.66a1,1,0,0,1,1-1,.93.93,0,0,1,.92,1v3.79h-1.88Zm11.34,0a.92.92,0,0,1,.91-1,1,1,0,0,1,1,1v3.79h-1.87Zm-18.73,14.07h8.84c.38-2.11,2-3.75,5.13-3.75s4.8,1.64,5.19,3.75h8.84l-3.7-8.79v-5.62l2.06-2.3v-2H249.49v2l2.07,2.3v5.62Zm23.58-29.39v1.63H269v-1.63h-3.13v1.63h-2.4v-1.63h-2.88v1.63h-2.4v-1.63h-3.12v1.63h-2.45v-1.63h-3.12v4.32l2.07,2.12v2.25h4.08v-2.25a2.14,2.14,0,0,1,2.11-1.78,2,2,0,0,1,2.16,1.78v2.25h4.23v-2.25a2,2,0,0,1,2.16-1.78,2.14,2.14,0,0,1,2.11,1.78v2.25h4.08v-2.25l2.07-2.12v-4.32ZM248.77,99.27a4.08,4.08,0,1,0,4.08-4.13,4.1,4.1,0,0,0-4.08,4.13M285,66h4.08V62.1H285V58.26h-3.9V62.1h-3.65V66h3.65v3.89H285Zm34.28,26.6a14.71,14.71,0,0,0,.39-9.12c-1.39-4.42-3.75-7.88-7.68-10.13a16.48,16.48,0,0,0-14.41-.29c-4.27-1-10-2.64-14.55,0-4.57-2.59-10.28-1-14.55,0a16.48,16.48,0,0,0-14.41.29c-3.93,2.25-6.29,5.71-7.69,10.13a14.85,14.85,0,0,0,.39,9.12h8.12c-.72-3.6-.67-9.07,1.63-11a6.93,6.93,0,0,1,5.57-1.92,1.33,1.33,0,0,1,.39.38,16,16,0,0,0-1.16,12.53h8.41c-.87-2.49-1.39-8,1-10.13s3.94-2.93,6.68-2.88a2.36,2.36,0,0,1,1.87,1.06v12h7.49v-12a2.39,2.39,0,0,1,1.87-1.06c2.74,0,4.33.82,6.68,2.88s1.87,7.64,1,10.13h8.4a15.92,15.92,0,0,0-1.15-12.53,1.46,1.46,0,0,1,.38-.38,6.91,6.91,0,0,1,5.57,1.92c2.31,1.92,2.36,7.39,1.64,11Zm-7.73,34.68c0,.28-.19.28-.29.47l-.57.15c-.29,0-.34-.19-.29-.34.29-.28.86-.72,1.15-.28m-2.06,3.11c-.15.15-.34.1-.48.1l-.05-.1c.19,0,.48-.09.53,0m14.26,1.88c-.53-.58-1.59-.53-2.4-.58-.24.2-.48.24-.67,0l-1.11-2.11c-.15,0-.29-.14-.43-.1l-.24.63a1,1,0,0,1-.48,0l-.91.48c-.24,0-.34-.1-.34-.29a18.68,18.68,0,0,0,.87-5.19c0-.09-.1-.14-.3-.14l-.81.86a.86.86,0,0,1-.29,0l-.67-2.31s-.14-.09-.29-.19l-.82,1.15a.51.51,0,0,1-.33.14l-.63-1.87c-1,1.87-3.36,2-5,3.26a1.38,1.38,0,0,0-.44.92l-2.3,2c-.2.06-.2,0-.44-.14-.62.29-.29,1.3-.29,1.83l.87,1a.64.64,0,0,0,.48-.09c-.29-.57-1-.91-.72-1.73a.59.59,0,0,1,.24-.05,8.33,8.33,0,0,0,1.63,1.06c.1.15-.14.24.05.48l2.06-.14a.41.41,0,0,1,.15.33c-.34.24-1,0-1.39.14l.86,1.78c-.1.63-.82.87-1.39,1.15a1.82,1.82,0,0,1-1.44-1,5.06,5.06,0,0,1-.2-1.15c0-.06-.14-.39-.37-.15a4.76,4.76,0,0,0,.23,3.55.82.82,0,0,1-.62.82,5.63,5.63,0,0,1-5-.53c-.2-.24.09-.58.14-.77s.2-.14.33-.19a4.64,4.64,0,0,0,4.42,1.05l-.29-3a10.78,10.78,0,0,1-3.64-5c-1-.77-1.39-2.17-2.6-1.88-.53.2-.81.48-1.44.38a2.3,2.3,0,0,0-1.29,1.83,1.56,1.56,0,0,0,.33,1.1,3.55,3.55,0,0,1,1.44,1.5l-.14,1.92c.14.33.48,0,.62-.2s.34-.53.68-.62l1.24.48a1.1,1.1,0,0,1,.29.82l-.52,2.25c-.1.48-.53,0-.63-.14-.53-1.11-1.58-.77-2.31-1.11-.33-.62-1.34-.81-2.16-.81a.55.55,0,0,0-.48.19c.44,1.58-.91,2.25-1.72,3.36,0,.1,0,.2.14.24a1,1,0,0,0,.48-.14c.76.14,1.06,1.1,1.58,1.68a6.22,6.22,0,0,0-.14,2.06c.43.15.77-.48,1.3-.57l2.11.33.38,1.39,2.35-.77c.49.34.2.92.54,1.45l1.29-.82.58-.19a.9.9,0,0,1,.86.63l.29,1.24c.57,0,.57-.86,1-1.15s1.49-.09,2.11.1c.82.47,1.39,1.44,2.4,1.53,1.39,2.26.15,6.24,3.75,7.44a5.58,5.58,0,0,1,.91,4.57,5.65,5.65,0,0,0-3.84-1.06c-.24.1-.34.19-.48.19a1.45,1.45,0,0,0-.68.87l.39.48-.67,2.83c.28,0,.33-.19.62-.24l1.92,1a6.37,6.37,0,0,1,1,.68l1.58.14,2-2.26.77.48c1-.63.29-2.16,1-3.07h1.73l-2.26-3.75a.91.91,0,0,1,.34-.62l1,.14c.58-.14,0-.53-.09-.77-2.59-3.07-2.64-7.83-6.05-10.18v-.33l2.21-.15c.34-.18,0-.43-.15-.58a.82.82,0,0,0-.33-.19c-.05-.18-.24-.33-.24-.67.19-.28.72-.09,1.06-.14.53-.24-.1-.82-.19-1.16-.49-.62-1.21-1.1-.87-2,.05,0,.19-.15.24-.2h1c0-.57-.82-1.2-.24-1.87a10.47,10.47,0,0,0,3-3.55c.15,0,.19,0,.29.14-.34,3.27-3.74,5.81-1.77,9.56.86,1.58,2.35,3.07,1.34,5.13a6,6,0,0,1-.87.82c0,.1-.19.19-.23.44a1.08,1.08,0,0,0,0,.33c.19.29.68.1.87,0a3.82,3.82,0,0,0,1.39-3.22,2.73,2.73,0,0,0-.57-1.67c-1-1.74-1.73-4-1-5.86a1.21,1.21,0,0,1,1-.77l.57.62c.1.58-.53,1-.39,1.59l.92-.05a2.73,2.73,0,0,0,1.2-2.36,1.23,1.23,0,0,1-.05-.67c.48-1,2-.76,2.26-2.06M312.36,278.42h-14.7l7.44-17.28Zm.37,16.66h16.88v-1.17a6.53,6.53,0,0,1-4.08-1.44c-1-.84-2.07-2.7-3.27-5.56l-14.89-35.58h-1.1l-15,35.2c-1.31,3.09-2.49,5.14-3.57,6.15a7.21,7.21,0,0,1-3.47,1.23v1.17h13.47v-1.17q-3.09-.23-4-1a2.16,2.16,0,0,1-.93-1.72,10.77,10.77,0,0,1,1.07-3.72l2.9-6.75h16.56l2.59,6.15a13.37,13.37,0,0,1,1.26,4.38,2.19,2.19,0,0,1-.9,1.77,6.33,6.33,0,0,1-3.46.85Zm41.54-182.47A9.23,9.23,0,1,0,345,122a9.25,9.25,0,0,0,9.24-9.34M369.13,253.7a2.07,2.07,0,0,1-1.48.6,4.9,4.9,0,0,1-1.89-.7,20.19,20.19,0,0,0-9.15-2.27,21.43,21.43,0,0,0-11,2.95,20.89,20.89,0,0,0-7.9,8.31,24.6,24.6,0,0,0-2.86,11.77,22.47,22.47,0,0,0,4.35,13.81q5.84,7.89,16.46,7.89a19.09,19.09,0,0,0,10.19-2.65,22.57,22.57,0,0,0,7.5-8.36l-1-.63q-3.81,5.29-7,7.08a14.87,14.87,0,0,1-7.35,1.78A16.08,16.08,0,0,1,349.5,291a13.9,13.9,0,0,1-5.59-6.53A24.81,24.81,0,0,1,342,274.42a30.73,30.73,0,0,1,2-11.76,13.54,13.54,0,0,1,13.11-9.06,13.55,13.55,0,0,1,8.7,2.88q3.63,2.86,5.59,9.39h1l-1-14.54H370.3a4.9,4.9,0,0,1-1.17,2.37m19.35-141.09a9.24,9.24,0,1,0-9.23,9.34,9.25,9.25,0,0,0,9.23-9.34M379.4,295.08h18.33v-1.17h-1.54a5.77,5.77,0,0,1-2.88-.76A2.8,2.8,0,0,1,392,291.8a14.29,14.29,0,0,1-.41-4.29V259.88c0-2.57.26-4.18.79-4.86a4.56,4.56,0,0,1,3.82-1.54h1.54v-1.17H379.4v1.17h1.52a5.9,5.9,0,0,1,2.9.76,2.82,2.82,0,0,1,1.29,1.35,13.85,13.85,0,0,1,.42,4.29v27.63c0,2.57-.26,4.18-.76,4.86a4.59,4.59,0,0,1-3.85,1.54H379.4Zm54.38,20.66h-33v1.17h1.52a4.93,4.93,0,0,1,3.79,1.26q.81.94.81,5V351a14.93,14.93,0,0,1-.36,4.13,2.64,2.64,0,0,1-1.37,1.51,6,6,0,0,1-2.87.73h-1.52v1.16h33l3.69-10.72h-1.26a24.38,24.38,0,0,1-4,5.9,7.93,7.93,0,0,1-3.16,2,19.55,19.55,0,0,1-5.27.5h-7.25a5.32,5.32,0,0,1-2.39-.36,2,2,0,0,1-.89-1,13,13,0,0,1-.25-3.45v-14.1h9.4a9.51,9.51,0,0,1,4,.63,4,4,0,0,1,1.86,1.74,16.29,16.29,0,0,1,.88,4h1.17V328.77h-1.17c-.12,2.43-.73,4.14-1.82,5.1Q426.06,335,422.4,335H413V318.07h11.73a14.12,14.12,0,0,1,4.45.48,5,5,0,0,1,2.38,1.92,15.18,15.18,0,0,1,1.47,4.64h1.23Zm-11.1-203.13a9.23,9.23,0,1,0-9.23,9.34,9.24,9.24,0,0,0,9.23-9.34m-.3,136.67,9.3-10.87h-7.06l-3.31,10.87ZM456.9,112.61a9.24,9.24,0,1,0-9.24,9.34,9.25,9.25,0,0,0,9.24-9.34m34.2,0a9.23,9.23,0,1,0-9.23,9.34,9.24,9.24,0,0,0,9.23-9.34m5,140.87v-1.17H481.17v1.17h1.49a4.69,4.69,0,0,1,3.69,1.32c.59.65.88,2.29.88,4.92v24.67l-26.14-32.08H449.48v1.17a8.94,8.94,0,0,1,5.6,1.58,19.77,19.77,0,0,1,2.82,2.86v29.75c0,2.39-.23,3.93-.69,4.6a4.39,4.39,0,0,1-3.88,1.64h-1.49v1.17h14.89v-1.17h-1.51a4.75,4.75,0,0,1-3.69-1.32c-.57-.65-.85-2.3-.85-4.92V261.33l28.19,34.44H490v-36c0-2.39.23-3.93.69-4.6a4.36,4.36,0,0,1,3.85-1.64Z" transform="translate(-70.87 -58.26)"/></svg>