<?xml version="1.0" encoding="UTF-8"?><svg id="Capa_1" xmlns="http://www.w3.org/2000/svg" width="648.78" height="480.72" viewBox="0 0 648.78 480.72"><defs><style>.cls-1{fill:#122a41;}.cls-2{opacity:.55;}.cls-3{fill:#737373;}.cls-4{fill:#1d1d1b;}.cls-5{fill:#285d90;}</style></defs><path class="cls-4" d="M149.4,228.32c-7.47-10.93-17-19.2-28.6-24.8s-23.67-8.4-36.2-8.4c-13.6,0-26.8,3.6-39.6,10.8-12.8,7.2-23.34,18.2-31.6,33-8.27,14.8-12.4,33.8-12.4,57,0,20,4.13,37.2,12.4,51.6,8.26,14.4,18.93,25.47,32,33.2,13.06,7.74,26.8,11.6,41.2,11.6,11.2,0,22.33-2.53,33.4-7.6,11.06-5.06,20.86-12.93,29.4-23.6v35.6c0,13.06-3.87,22.6-11.6,28.6-7.74,6-18,9-30.8,9-6.94,0-13.87-1.34-20.8-4-6.94-2.67-12.27-7.6-16-14.8l-49.6,18c6.13,12,14,21.46,23.6,28.4,9.6,6.93,20,11.8,31.2,14.6s22.26,4.2,33.2,4.2c31.73,0,56.53-7.74,74.4-23.2,17.86-15.47,26.8-39.74,26.8-72.8v-183.6h-52.4l-8,27.2ZM145.8,324.72c-4,7.47-9.27,12.74-15.8,15.8-6.54,3.07-13.8,4.6-21.8,4.6-12,0-22.34-4.33-31-13-8.67-8.66-13-21.8-13-39.4s4.33-30,13-38c8.66-8,19-12,31-12s21.93,3.74,30.6,11.2c8.66,7.47,13,20.94,13,40.4,0,12.8-2,22.94-6,30.4Z"/><path class="cls-4" d="M423.79,113.52c-11.2,3.47-19.47,9.6-24.8,18.4-5.34,8.8-8,21.07-8,36.8v32.4h-32.8v46.4h32.8v152h60.8v-152h43.2v-46.4h-43.2v-26.8c0-7.73,1.73-12.66,5.2-14.8,3.46-2.13,10.53-3.2,21.2-3.2h16.8v-48h-27.6c-17.87,0-32.4,1.74-43.6,5.2Z"/><path class="cls-4" d="M649.78,247.52v-46.4h-43.2v-49.6h-60.8v49.6h-32.8v46.4h32.8v96c0,15.47,2.06,27.27,6.2,35.4,4.13,8.14,11,13.6,20.6,16.4,9.6,2.8,22.53,4.2,38.8,4.2h38.4v-49.6h-17.6c-9.87,0-16.6-1.4-20.2-4.2-3.6-2.8-5.4-8.86-5.4-18.2v-80h43.2Z"/><rect class="cls-4" x="270.67" y="200.47" width="60.26" height="198.89"/><path class="cls-5" d="M285.25,42.43c-35.38,0-64.27,27.08-65.38,60.77l-49.66,9.21h0s-.17.03-.17.03l-.04-.07-2.69,1.09,54.73,7.91c7.46,26.8,32.97,46.6,63.22,46.6,36.08,0,65.44-28.16,65.44-62.77s-29.36-62.78-65.44-62.78"/><path class="cls-3" d="M332.27,0c-29.18,0-53.85,18.57-61.86,44.06,4.77-1.07,9.74-1.63,14.84-1.63,36.08,0,65.44,28.16,65.44,62.78,0,5.82-.83,11.46-2.38,16.81,27.92-6.84,48.56-31.13,48.56-60.05,0-.96-.03-1.91-.08-2.85l.06.19,53.85-20.06-57.66,1.65C384.04,17.05,360.23,0,332.27,0"/><path class="cls-1" d="M285.25,42.43c-5.1,0-10.07.56-14.84,1.63-1.78,5.67-2.74,11.68-2.74,17.91,0,34.23,28.92,61.97,64.6,61.97,5.54,0,10.91-.67,16.04-1.92,1.55-5.35,2.38-10.99,2.38-16.81,0-34.61-29.36-62.78-65.44-62.78"/><polygon class="cls-2" points="450.83 39.25 450.76 39.25 450.65 39.36 450.83 39.25"/><polygon class="cls-2" points="450.79 39.21 450.69 39.25 450.76 39.25 450.79 39.21"/></svg>