<?xml version="1.0" encoding="UTF-8"?>
<svg id="a" data-name="Capa 1" xmlns="http://www.w3.org/2000/svg" viewBox="0 0 164 85">
  <defs>
    <style>
      .b {
        fill: #009ab8;
      }
    </style>
  </defs>
  <g>
    <polygon class="b" points="2.09 8.44 2.09 .44 10.09 .44 10.09 8.44 2.09 8.44 2.09 8.44"/>
    <polygon class="b" points="2.09 8.44 2.09 .44 10.09 .44 10.09 8.44 2.09 8.44 2.09 8.44"/>
  </g>
  <g>
    <polygon class="b" points="17.4 8.04 17.4 .84 24.6 .84 24.6 8.04 17.4 8.04 17.4 8.04"/>
    <polygon class="b" points="17.4 8.04 17.4 .84 24.6 .84 24.6 8.04 17.4 8.04 17.4 8.04"/>
  </g>
  <g>
    <polygon class="b" points="31.46 8.89 31.46 0 40.35 0 40.35 8.89 31.46 8.89 31.46 8.89"/>
    <polygon class="b" points="31.46 8.89 31.46 0 40.35 0 40.35 8.89 31.46 8.89 31.46 8.89"/>
  </g>
  <g>
    <polygon class="b" points="48.19 7.07 48.19 1.82 53.43 1.82 53.43 7.07 48.19 7.07 48.19 7.07"/>
    <polygon class="b" points="48.19 7.07 48.19 1.82 53.43 1.82 53.43 7.07 48.19 7.07 48.19 7.07"/>
  </g>
  <g>
    <polygon class="b" points="61.27 8.89 61.27 0 70.16 0 70.16 8.89 61.27 8.89 61.27 8.89"/>
    <polygon class="b" points="61.27 8.89 61.27 0 70.16 0 70.16 8.89 61.27 8.89 61.27 8.89"/>
  </g>
  <g>
    <polygon class="b" points="77.38 7.68 77.38 1.2 83.86 1.2 83.86 7.68 77.38 7.68 77.38 7.68"/>
    <polygon class="b" points="77.38 7.68 77.38 1.2 83.86 1.2 83.86 7.68 77.38 7.68 77.38 7.68"/>
  </g>
  <g>
    <polygon class="b" points="91.08 8.89 91.08 0 99.96 0 99.96 8.89 91.08 8.89 91.08 8.89"/>
    <polygon class="b" points="91.08 8.89 91.08 0 99.96 0 99.96 8.89 91.08 8.89 91.08 8.89"/>
  </g>
  <g>
    <polygon class="b" points="107.51 7.36 107.51 1.53 113.34 1.53 113.34 7.36 107.51 7.36 107.51 7.36"/>
    <polygon class="b" points="107.51 7.36 107.51 1.53 113.34 1.53 113.34 7.36 107.51 7.36 107.51 7.36"/>
  </g>
  <g>
    <polygon class="b" points="121.73 8.04 121.73 .84 128.93 .84 128.93 8.04 121.73 8.04 121.73 8.04"/>
    <polygon class="b" points="121.73 8.04 121.73 .84 128.93 .84 128.93 8.04 121.73 8.04 121.73 8.04"/>
  </g>
  <g>
    <polygon class="b" points="135.8 8.89 135.8 0 144.68 0 144.68 8.89 135.8 8.89 135.8 8.89"/>
    <polygon class="b" points="135.8 8.89 135.8 0 144.68 0 144.68 8.89 135.8 8.89 135.8 8.89"/>
  </g>
  <g>
    <polygon class="b" points="152.52 7.07 152.52 1.82 157.77 1.82 157.77 7.07 152.52 7.07 152.52 7.07"/>
    <polygon class="b" points="152.52 7.07 152.52 1.82 157.77 1.82 157.77 7.07 152.52 7.07 152.52 7.07"/>
  </g>
  <g>
    <polygon class="b" points="29.81 85 29.81 72.81 42 72.81 42 85 29.81 85 29.81 85"/>
    <polygon class="b" points="29.81 85 29.81 72.81 42 72.81 42 85 29.81 85 29.81 85"/>
  </g>
  <g>
    <polygon class="b" points="30.97 68.94 30.97 59.06 40.84 59.06 40.84 68.94 30.97 68.94 30.97 68.94"/>
    <polygon class="b" points="30.97 68.94 30.97 59.06 40.84 59.06 40.84 68.94 30.97 68.94 30.97 68.94"/>
  </g>
  <g>
    <polygon class="b" points="45.87 83.84 45.87 73.97 55.74 73.97 55.74 83.84 45.87 83.84 45.87 83.84"/>
    <polygon class="b" points="45.87 83.84 45.87 73.97 55.74 73.97 55.74 83.84 45.87 83.84 45.87 83.84"/>
  </g>
  <g>
    <polygon class="b" points="45.32 69.48 45.32 58.51 56.29 58.51 56.29 69.48 45.32 69.48 45.32 69.48"/>
    <polygon class="b" points="45.32 69.48 45.32 58.51 56.29 58.51 56.29 69.48 45.32 69.48 45.32 69.48"/>
  </g>
  <g>
    <polygon class="b" points="60.23 84.39 60.23 73.42 71.2 73.42 71.2 84.39 60.23 84.39 60.23 84.39"/>
    <polygon class="b" points="60.23 84.39 60.23 73.42 71.2 73.42 71.2 84.39 60.23 84.39 60.23 84.39"/>
  </g>
  <g>
    <polygon class="b" points="59.62 70.09 59.62 57.9 71.8 57.9 71.8 70.09 59.62 70.09 59.62 70.09"/>
    <polygon class="b" points="59.62 70.09 59.62 57.9 71.8 57.9 71.8 70.09 59.62 70.09 59.62 70.09"/>
  </g>
  <g>
    <polygon class="b" points="74.82 84.69 74.82 73.11 86.4 73.11 86.4 84.69 74.82 84.69 74.82 84.69"/>
    <polygon class="b" points="74.82 84.69 74.82 73.11 86.4 73.11 86.4 84.69 74.82 84.69 74.82 84.69"/>
  </g>
  <g>
    <polygon class="b" points="75.68 68.94 75.68 59.06 85.55 59.06 85.55 68.94 75.68 68.94 75.68 68.94"/>
    <polygon class="b" points="75.68 68.94 75.68 59.06 85.55 59.06 85.55 68.94 75.68 68.94 75.68 68.94"/>
  </g>
  <g>
    <polygon class="b" points="91.08 83.35 91.08 74.46 99.96 74.46 99.96 83.35 91.08 83.35 91.08 83.35"/>
    <polygon class="b" points="91.08 83.35 91.08 74.46 99.96 74.46 99.96 83.35 91.08 83.35 91.08 83.35"/>
  </g>
  <g>
    <polygon class="b" points="90.58 68.94 90.58 59.06 100.46 59.06 100.46 68.94 90.58 68.94 90.58 68.94"/>
    <polygon class="b" points="90.58 68.94 90.58 59.06 100.46 59.06 100.46 68.94 90.58 68.94 90.58 68.94"/>
  </g>
  <g>
    <polygon class="b" points="104.33 85 104.33 72.81 116.52 72.81 116.52 85 104.33 85 104.33 85"/>
    <polygon class="b" points="104.33 85 104.33 72.81 116.52 72.81 116.52 85 104.33 85 104.33 85"/>
  </g>
  <g>
    <polygon class="b" points="105.49 68.94 105.49 59.06 115.36 59.06 115.36 68.94 105.49 68.94 105.49 68.94"/>
    <polygon class="b" points="105.49 68.94 105.49 59.06 115.36 59.06 115.36 68.94 105.49 68.94 105.49 68.94"/>
  </g>
  <g>
    <polygon class="b" points="119.54 84.69 119.54 73.11 131.12 73.11 131.12 84.69 119.54 84.69 119.54 84.69"/>
    <polygon class="b" points="119.54 84.69 119.54 73.11 131.12 73.11 131.12 84.69 119.54 84.69 119.54 84.69"/>
  </g>
  <g>
    <polygon class="b" points="119.84 69.48 119.84 58.51 130.81 58.51 130.81 69.48 119.84 69.48 119.84 69.48"/>
    <polygon class="b" points="119.84 69.48 119.84 58.51 130.81 58.51 130.81 69.48 119.84 69.48 119.84 69.48"/>
  </g>
  <g>
    <polygon class="b" points="135.02 84.12 135.02 73.69 145.44 73.69 145.44 84.12 135.02 84.12 135.02 84.12"/>
    <polygon class="b" points="135.02 84.12 135.02 73.69 145.44 73.69 145.44 84.12 135.02 84.12 135.02 84.12"/>
  </g>
  <g>
    <polygon class="b" points="135.29 68.94 135.29 59.06 145.17 59.06 145.17 68.94 135.29 68.94 135.29 68.94"/>
    <polygon class="b" points="135.29 68.94 135.29 59.06 145.17 59.06 145.17 68.94 135.29 68.94 135.29 68.94"/>
  </g>
  <g>
    <polygon class="b" points="149.65 84.39 149.65 73.42 160.62 73.42 160.62 84.39 149.65 84.39 149.65 84.39"/>
    <polygon class="b" points="149.65 84.39 149.65 73.42 160.62 73.42 160.62 84.39 149.65 84.39 149.65 84.39"/>
  </g>
  <g>
    <polygon class="b" points="150.2 68.94 150.2 59.06 160.07 59.06 160.07 68.94 150.2 68.94 150.2 68.94"/>
    <polygon class="b" points="150.2 68.94 150.2 59.06 160.07 59.06 160.07 68.94 150.2 68.94 150.2 68.94"/>
  </g>
  <g>
    <polygon class="b" points="30.97 54.03 30.97 44.16 40.84 44.16 40.84 54.03 30.97 54.03 30.97 54.03"/>
    <polygon class="b" points="30.97 54.03 30.97 44.16 40.84 44.16 40.84 54.03 30.97 54.03 30.97 54.03"/>
  </g>
  <g>
    <polygon class="b" points="31.46 38.63 31.46 29.74 40.35 29.74 40.35 38.63 31.46 38.63 31.46 38.63"/>
    <polygon class="b" points="31.46 38.63 31.46 29.74 40.35 29.74 40.35 38.63 31.46 38.63 31.46 38.63"/>
  </g>
  <g>
    <polygon class="b" points="45.32 54.58 45.32 43.61 56.29 43.61 56.29 54.58 45.32 54.58 45.32 54.58"/>
    <polygon class="b" points="45.32 54.58 45.32 43.61 56.29 43.61 56.29 54.58 45.32 54.58 45.32 54.58"/>
  </g>
  <g>
    <polygon class="b" points="45.87 39.13 45.87 29.25 55.74 29.25 55.74 39.13 45.87 39.13 45.87 39.13"/>
    <polygon class="b" points="45.87 39.13 45.87 29.25 55.74 29.25 55.74 39.13 45.87 39.13 45.87 39.13"/>
  </g>
  <g>
    <polygon class="b" points="61.27 53.54 61.27 44.65 70.15 44.65 70.15 53.54 61.27 53.54 61.27 53.54"/>
    <polygon class="b" points="61.27 53.54 61.27 44.65 70.15 44.65 70.15 53.54 61.27 53.54 61.27 53.54"/>
  </g>
  <g>
    <polygon class="b" points="61.71 38.19 61.71 30.19 69.71 30.19 69.71 38.19 61.71 38.19 61.71 38.19"/>
    <polygon class="b" points="61.71 38.19 61.71 30.19 69.71 30.19 69.71 38.19 61.71 38.19 61.71 38.19"/>
  </g>
  <g>
    <polygon class="b" points="75.68 54.03 75.68 44.16 85.55 44.16 85.55 54.03 75.68 54.03 75.68 54.03"/>
    <polygon class="b" points="75.68 54.03 75.68 44.16 85.55 44.16 85.55 54.03 75.68 54.03 75.68 54.03"/>
  </g>
  <g>
    <polygon class="b" points="76.17 38.63 76.17 29.74 85.06 29.74 85.06 38.63 76.17 38.63 76.17 38.63"/>
    <polygon class="b" points="76.17 38.63 76.17 29.74 85.06 29.74 85.06 38.63 76.17 38.63 76.17 38.63"/>
  </g>
  <g>
    <polygon class="b" points="91.08 53.54 91.08 44.65 99.96 44.65 99.96 53.54 91.08 53.54 91.08 53.54"/>
    <polygon class="b" points="91.08 53.54 91.08 44.65 99.96 44.65 99.96 53.54 91.08 53.54 91.08 53.54"/>
  </g>
  <g>
    <polygon class="b" points="90.58 39.13 90.58 29.25 100.46 29.25 100.46 39.13 90.58 39.13 90.58 39.13"/>
    <polygon class="b" points="90.58 39.13 90.58 29.25 100.46 29.25 100.46 39.13 90.58 39.13 90.58 39.13"/>
  </g>
  <g>
    <polygon class="b" points="106.43 53.09 106.43 45.09 114.42 45.09 114.42 53.09 106.43 53.09 106.43 53.09"/>
    <polygon class="b" points="106.43 53.09 106.43 45.09 114.42 45.09 114.42 53.09 106.43 53.09 106.43 53.09"/>
  </g>
  <g>
    <polygon class="b" points="105.49 39.13 105.49 29.25 115.36 29.25 115.36 39.13 105.49 39.13 105.49 39.13"/>
    <polygon class="b" points="105.49 39.13 105.49 29.25 115.36 29.25 115.36 39.13 105.49 39.13 105.49 39.13"/>
  </g>
  <g>
    <polygon class="b" points="120.39 39.13 120.39 29.25 130.26 29.25 130.26 39.13 120.39 39.13 120.39 39.13"/>
    <polygon class="b" points="120.39 39.13 120.39 29.25 130.26 29.25 130.26 39.13 120.39 39.13 120.39 39.13"/>
  </g>
  <g>
    <polygon class="b" points="136.23 38.19 136.23 30.19 144.23 30.19 144.23 38.19 136.23 38.19 136.23 38.19"/>
    <polygon class="b" points="136.23 38.19 136.23 30.19 144.23 30.19 144.23 38.19 136.23 38.19 136.23 38.19"/>
  </g>
  <g>
    <polygon class="b" points="151.54 37.79 151.54 30.59 158.73 30.59 158.73 37.79 151.54 37.79 151.54 37.79"/>
    <polygon class="b" points="151.54 37.79 151.54 30.59 158.73 30.59 158.73 37.79 151.54 37.79 151.54 37.79"/>
  </g>
  <g>
    <polygon class="b" points="0 85 0 72.81 12.19 72.81 12.19 85 0 85 0 85"/>
    <polygon class="b" points="0 85 0 72.81 12.19 72.81 12.19 85 0 85 0 85"/>
  </g>
  <g>
    <polygon class="b" points=".61 69.48 .61 58.51 11.58 58.51 11.58 69.48 .61 69.48 .61 69.48"/>
    <polygon class="b" points=".61 69.48 .61 58.51 11.58 58.51 11.58 69.48 .61 69.48 .61 69.48"/>
  </g>
  <g>
    <polygon class="b" points="16.06 83.84 16.06 73.97 25.94 73.97 25.94 83.84 16.06 83.84 16.06 83.84"/>
    <polygon class="b" points="16.06 83.84 16.06 73.97 25.94 73.97 25.94 83.84 16.06 83.84 16.06 83.84"/>
  </g>
  <g>
    <polygon class="b" points="15.51 69.48 15.51 58.51 26.48 58.51 26.48 69.48 15.51 69.48 15.51 69.48"/>
    <polygon class="b" points="15.51 69.48 15.51 58.51 26.48 58.51 26.48 69.48 15.51 69.48 15.51 69.48"/>
  </g>
  <g>
    <polygon class="b" points="1.16 54.03 1.16 44.16 11.03 44.16 11.03 54.03 1.16 54.03 1.16 54.03"/>
    <polygon class="b" points="1.16 54.03 1.16 44.16 11.03 44.16 11.03 54.03 1.16 54.03 1.16 54.03"/>
  </g>
  <g>
    <polygon class="b" points="1.65 38.63 1.65 29.74 10.54 29.74 10.54 38.63 1.65 38.63 1.65 38.63"/>
    <polygon class="b" points="1.65 38.63 1.65 29.74 10.54 29.74 10.54 38.63 1.65 38.63 1.65 38.63"/>
  </g>
  <g>
    <polygon class="b" points="17 53.09 17 45.09 25 45.09 25 53.09 17 53.09 17 53.09"/>
    <polygon class="b" points="17 53.09 17 45.09 25 45.09 25 53.09 17 53.09 17 53.09"/>
  </g>
  <g>
    <polygon class="b" points="17.4 37.79 17.4 30.59 24.6 30.59 24.6 37.79 17.4 37.79 17.4 37.79"/>
    <polygon class="b" points="17.4 37.79 17.4 30.59 24.6 30.59 24.6 37.79 17.4 37.79 17.4 37.79"/>
  </g>
  <g>
    <polygon class="b" points="120.39 54.06 120.39 44.18 130.26 44.18 130.26 54.06 120.39 54.06 120.39 54.06"/>
    <polygon class="b" points="120.39 54.06 120.39 44.18 130.26 44.18 130.26 54.06 120.39 54.06 120.39 54.06"/>
  </g>
  <g>
    <polygon class="b" points="136.23 53.12 136.23 45.12 144.23 45.12 144.23 53.12 136.23 53.12 136.23 53.12"/>
    <polygon class="b" points="136.23 53.12 136.23 45.12 144.23 45.12 144.23 53.12 136.23 53.12 136.23 53.12"/>
  </g>
  <g>
    <polygon class="b" points="151.14 53.12 151.14 45.12 159.13 45.12 159.13 53.12 151.14 53.12 151.14 53.12"/>
    <polygon class="b" points="151.14 53.12 151.14 45.12 159.13 45.12 159.13 53.12 151.14 53.12 151.14 53.12"/>
  </g>
  <g>
    <polygon class="b" points="32.31 22.95 32.31 15.75 39.5 15.75 39.5 22.95 32.31 22.95 32.31 22.95"/>
    <polygon class="b" points="32.31 22.95 32.31 15.75 39.5 15.75 39.5 22.95 32.31 22.95 32.31 22.95"/>
  </g>
  <g>
    <polygon class="b" points="46.81 23.35 46.81 15.35 54.8 15.35 54.8 23.35 46.81 23.35 46.81 23.35"/>
    <polygon class="b" points="46.81 23.35 46.81 15.35 54.8 15.35 54.8 23.35 46.81 23.35 46.81 23.35"/>
  </g>
  <g>
    <polygon class="b" points="62.79 22.26 62.79 16.43 68.62 16.43 68.62 22.26 62.79 22.26 62.79 22.26"/>
    <polygon class="b" points="62.79 22.26 62.79 16.43 68.62 16.43 68.62 22.26 62.79 22.26 62.79 22.26"/>
  </g>
  <g>
    <polygon class="b" points="76.62 23.35 76.62 15.35 84.61 15.35 84.61 23.35 76.62 23.35 76.62 23.35"/>
    <polygon class="b" points="76.62 23.35 76.62 15.35 84.61 15.35 84.61 23.35 76.62 23.35 76.62 23.35"/>
  </g>
  <g>
    <polygon class="b" points="92.28 22.59 92.28 16.11 98.76 16.11 98.76 22.59 92.28 22.59 92.28 22.59"/>
    <polygon class="b" points="92.28 22.59 92.28 16.11 98.76 16.11 98.76 22.59 92.28 22.59 92.28 22.59"/>
  </g>
  <g>
    <polygon class="b" points="106.43 23.35 106.43 15.35 114.42 15.35 114.42 23.35 106.43 23.35 106.43 23.35"/>
    <polygon class="b" points="106.43 23.35 106.43 15.35 114.42 15.35 114.42 23.35 106.43 23.35 106.43 23.35"/>
  </g>
  <g>
    <polygon class="b" points="120.88 23.79 120.88 14.91 129.77 14.91 129.77 23.79 120.88 23.79 120.88 23.79"/>
    <polygon class="b" points="120.88 23.79 120.88 14.91 129.77 14.91 129.77 23.79 120.88 23.79 120.88 23.79"/>
  </g>
  <g>
    <polygon class="b" points="136.63 22.95 136.63 15.75 143.83 15.75 143.83 22.95 136.63 22.95 136.63 22.95"/>
    <polygon class="b" points="136.63 22.95 136.63 15.75 143.83 15.75 143.83 22.95 136.63 22.95 136.63 22.95"/>
  </g>
  <g>
    <polygon class="b" points="151.9 22.59 151.9 16.11 158.37 16.11 158.37 22.59 151.9 22.59 151.9 22.59"/>
    <polygon class="b" points="151.9 22.59 151.9 16.11 158.37 16.11 158.37 22.59 151.9 22.59 151.9 22.59"/>
  </g>
  <g>
    <polygon class="b" points="1.65 23.79 1.65 14.91 10.54 14.91 10.54 23.79 1.65 23.79 1.65 23.79"/>
    <polygon class="b" points="1.65 23.79 1.65 14.91 10.54 14.91 10.54 23.79 1.65 23.79 1.65 23.79"/>
  </g>
  <g>
    <polygon class="b" points="18.09 22.26 18.09 16.43 23.92 16.43 23.92 22.26 18.09 22.26 18.09 22.26"/>
    <polygon class="b" points="18.09 22.26 18.09 16.43 23.92 16.43 23.92 22.26 18.09 22.26 18.09 22.26"/>
  </g>
</svg>